<mxfile host="app.diagrams.net" modified="2023-11-19T19:29:35.742Z" agent="Mozilla/5.0 (Macintosh; Intel Mac OS X 10_15_7) AppleWebKit/537.36 (KHTML, like Gecko) Chrome/118.0.0.0 Safari/537.36" etag="2OfjXxjat2ezJ5jbxjZv" version="22.1.3" type="google" pages="2">
  <diagram name="DER" id="wTMXUOqPYBYeMdH8Z22t">
    <mxGraphModel grid="1" page="1" gridSize="10" guides="1" tooltips="1" connect="1" arrows="1" fold="1" pageScale="1" pageWidth="827" pageHeight="1169" math="0" shadow="0">
      <root>
        <mxCell id="0" />
        <mxCell id="1" parent="0" />
        <mxCell id="wokvJsTOHcP-xqDJ0GcV-2" value="Nombre" style="ellipse;whiteSpace=wrap;html=1;" vertex="1" parent="1">
          <mxGeometry x="110" y="120" width="80" height="30" as="geometry" />
        </mxCell>
        <mxCell id="wokvJsTOHcP-xqDJ0GcV-3" value="Clientes" style="rounded=0;whiteSpace=wrap;html=1;" vertex="1" parent="1">
          <mxGeometry x="210" y="180" width="110" height="50" as="geometry" />
        </mxCell>
        <mxCell id="wokvJsTOHcP-xqDJ0GcV-4" value="Apellido" style="ellipse;whiteSpace=wrap;html=1;" vertex="1" parent="1">
          <mxGeometry x="80" y="160" width="80" height="30" as="geometry" />
        </mxCell>
        <mxCell id="wokvJsTOHcP-xqDJ0GcV-5" value="TipoDoc" style="ellipse;whiteSpace=wrap;html=1;" vertex="1" parent="1">
          <mxGeometry x="80" y="220" width="80" height="30" as="geometry" />
        </mxCell>
        <mxCell id="wokvJsTOHcP-xqDJ0GcV-6" value="NroDoc" style="ellipse;whiteSpace=wrap;html=1;" vertex="1" parent="1">
          <mxGeometry x="80" y="260" width="80" height="30" as="geometry" />
        </mxCell>
        <mxCell id="wokvJsTOHcP-xqDJ0GcV-7" value="Email" style="ellipse;whiteSpace=wrap;html=1;" vertex="1" parent="1">
          <mxGeometry x="120" y="300" width="80" height="30" as="geometry" />
        </mxCell>
        <mxCell id="wokvJsTOHcP-xqDJ0GcV-8" value="FechaNacimiento" style="ellipse;whiteSpace=wrap;html=1;" vertex="1" parent="1">
          <mxGeometry x="210" y="290" width="120" height="30" as="geometry" />
        </mxCell>
        <mxCell id="wokvJsTOHcP-xqDJ0GcV-9" value="EstadoCliente" style="rounded=0;whiteSpace=wrap;html=1;" vertex="1" parent="1">
          <mxGeometry x="570" y="180" width="110" height="50" as="geometry" />
        </mxCell>
        <mxCell id="wokvJsTOHcP-xqDJ0GcV-10" value="Id" style="ellipse;whiteSpace=wrap;html=1;fontStyle=4" vertex="1" parent="1">
          <mxGeometry x="230" y="100" width="80" height="30" as="geometry" />
        </mxCell>
        <mxCell id="wokvJsTOHcP-xqDJ0GcV-11" value="Id" style="ellipse;whiteSpace=wrap;html=1;fontStyle=4" vertex="1" parent="1">
          <mxGeometry x="560" y="100" width="80" height="30" as="geometry" />
        </mxCell>
        <mxCell id="wokvJsTOHcP-xqDJ0GcV-12" value="Nombre" style="ellipse;whiteSpace=wrap;html=1;" vertex="1" parent="1">
          <mxGeometry x="660" y="110" width="80" height="30" as="geometry" />
        </mxCell>
        <mxCell id="wokvJsTOHcP-xqDJ0GcV-16" value="" style="edgeStyle=orthogonalEdgeStyle;rounded=0;orthogonalLoop=1;jettySize=auto;html=1;exitX=1;exitY=0.5;exitDx=0;exitDy=0;" edge="1" parent="1" source="wokvJsTOHcP-xqDJ0GcV-13" target="wokvJsTOHcP-xqDJ0GcV-9">
          <mxGeometry relative="1" as="geometry" />
        </mxCell>
        <mxCell id="wokvJsTOHcP-xqDJ0GcV-13" value="tiene" style="rhombus;whiteSpace=wrap;html=1;" vertex="1" parent="1">
          <mxGeometry x="420" y="180" width="56" height="50" as="geometry" />
        </mxCell>
        <mxCell id="wokvJsTOHcP-xqDJ0GcV-14" value="n" style="endArrow=none;html=1;rounded=0;entryX=0;entryY=0.5;entryDx=0;entryDy=0;exitX=1;exitY=0.5;exitDx=0;exitDy=0;" edge="1" parent="1" source="wokvJsTOHcP-xqDJ0GcV-3" target="wokvJsTOHcP-xqDJ0GcV-13">
          <mxGeometry width="50" height="50" relative="1" as="geometry">
            <mxPoint x="390" y="350" as="sourcePoint" />
            <mxPoint x="440" y="300" as="targetPoint" />
          </mxGeometry>
        </mxCell>
        <mxCell id="wokvJsTOHcP-xqDJ0GcV-15" value="1" style="endArrow=none;html=1;rounded=0;entryX=0;entryY=0.5;entryDx=0;entryDy=0;" edge="1" parent="1">
          <mxGeometry width="50" height="50" relative="1" as="geometry">
            <mxPoint x="480" y="205" as="sourcePoint" />
            <mxPoint x="570" y="204.58" as="targetPoint" />
          </mxGeometry>
        </mxCell>
        <mxCell id="wokvJsTOHcP-xqDJ0GcV-17" value="Servicios" style="rounded=0;whiteSpace=wrap;html=1;" vertex="1" parent="1">
          <mxGeometry x="-110" y="420" width="110" height="50" as="geometry" />
        </mxCell>
        <mxCell id="wokvJsTOHcP-xqDJ0GcV-18" value="Nombre" style="ellipse;whiteSpace=wrap;html=1;" vertex="1" parent="1">
          <mxGeometry x="-220" y="390" width="80" height="30" as="geometry" />
        </mxCell>
        <mxCell id="wokvJsTOHcP-xqDJ0GcV-19" value="Id" style="ellipse;whiteSpace=wrap;html=1;fontStyle=4" vertex="1" parent="1">
          <mxGeometry x="-120" y="360" width="80" height="30" as="geometry" />
        </mxCell>
        <mxCell id="wokvJsTOHcP-xqDJ0GcV-20" value="ServicioContratado" style="rounded=0;whiteSpace=wrap;html=1;" vertex="1" parent="1">
          <mxGeometry x="510" y="360" width="110" height="50" as="geometry" />
        </mxCell>
        <mxCell id="wokvJsTOHcP-xqDJ0GcV-21" value="Telefono" style="ellipse;whiteSpace=wrap;html=1;" vertex="1" parent="1">
          <mxGeometry x="650" y="260" width="80" height="30" as="geometry" />
        </mxCell>
        <mxCell id="wokvJsTOHcP-xqDJ0GcV-22" value="NroServicio" style="ellipse;whiteSpace=wrap;html=1;fontStyle=4" vertex="1" parent="1">
          <mxGeometry x="660" y="310" width="100" height="30" as="geometry" />
        </mxCell>
        <mxCell id="wokvJsTOHcP-xqDJ0GcV-25" value="Numero" style="ellipse;whiteSpace=wrap;html=1;" vertex="1" parent="1">
          <mxGeometry x="600" y="520" width="80" height="30" as="geometry" />
        </mxCell>
        <mxCell id="wokvJsTOHcP-xqDJ0GcV-26" value="Piso" style="ellipse;whiteSpace=wrap;html=1;" vertex="1" parent="1">
          <mxGeometry x="510" y="530" width="80" height="30" as="geometry" />
        </mxCell>
        <mxCell id="wokvJsTOHcP-xqDJ0GcV-27" value="Depto" style="ellipse;whiteSpace=wrap;html=1;" vertex="1" parent="1">
          <mxGeometry x="630" y="480" width="80" height="30" as="geometry" />
        </mxCell>
        <mxCell id="wokvJsTOHcP-xqDJ0GcV-28" value="FechaInicio" style="ellipse;whiteSpace=wrap;html=1;" vertex="1" parent="1">
          <mxGeometry x="660" y="400" width="80" height="30" as="geometry" />
        </mxCell>
        <mxCell id="wokvJsTOHcP-xqDJ0GcV-29" value="Estado" style="ellipse;whiteSpace=wrap;html=1;" vertex="1" parent="1">
          <mxGeometry x="680" y="360" width="80" height="30" as="geometry" />
        </mxCell>
        <mxCell id="wokvJsTOHcP-xqDJ0GcV-30" value="tiene" style="rhombus;whiteSpace=wrap;html=1;" vertex="1" parent="1">
          <mxGeometry x="420" y="260" width="56" height="50" as="geometry" />
        </mxCell>
        <mxCell id="wokvJsTOHcP-xqDJ0GcV-31" value="tiene" style="rhombus;whiteSpace=wrap;html=1;" vertex="1" parent="1">
          <mxGeometry x="220" y="380" width="56" height="50" as="geometry" />
        </mxCell>
        <mxCell id="wokvJsTOHcP-xqDJ0GcV-32" value="n" style="endArrow=none;html=1;rounded=0;exitX=0.5;exitY=1;exitDx=0;exitDy=0;" edge="1" parent="1" source="wokvJsTOHcP-xqDJ0GcV-30">
          <mxGeometry width="50" height="50" relative="1" as="geometry">
            <mxPoint x="460" y="410" as="sourcePoint" />
            <mxPoint x="510" y="360" as="targetPoint" />
          </mxGeometry>
        </mxCell>
        <mxCell id="wokvJsTOHcP-xqDJ0GcV-33" value="1" style="endArrow=none;html=1;rounded=0;exitX=1;exitY=0.75;exitDx=0;exitDy=0;entryX=0.5;entryY=0;entryDx=0;entryDy=0;" edge="1" parent="1" source="wokvJsTOHcP-xqDJ0GcV-3" target="wokvJsTOHcP-xqDJ0GcV-30">
          <mxGeometry width="50" height="50" relative="1" as="geometry">
            <mxPoint x="383" y="210" as="sourcePoint" />
            <mxPoint x="445" y="260" as="targetPoint" />
          </mxGeometry>
        </mxCell>
        <mxCell id="wokvJsTOHcP-xqDJ0GcV-34" value="n" style="endArrow=none;html=1;rounded=0;exitX=1;exitY=0.5;exitDx=0;exitDy=0;" edge="1" parent="1" source="wokvJsTOHcP-xqDJ0GcV-31">
          <mxGeometry width="50" height="50" relative="1" as="geometry">
            <mxPoint x="448" y="330" as="sourcePoint" />
            <mxPoint x="510" y="380" as="targetPoint" />
          </mxGeometry>
        </mxCell>
        <mxCell id="wokvJsTOHcP-xqDJ0GcV-35" value="1" style="endArrow=none;html=1;rounded=0;exitX=1;exitY=0;exitDx=0;exitDy=0;entryX=0;entryY=0.5;entryDx=0;entryDy=0;" edge="1" parent="1" source="wokvJsTOHcP-xqDJ0GcV-17" target="wokvJsTOHcP-xqDJ0GcV-31">
          <mxGeometry width="50" height="50" relative="1" as="geometry">
            <mxPoint x="146" y="410" as="sourcePoint" />
            <mxPoint x="300" y="395" as="targetPoint" />
          </mxGeometry>
        </mxCell>
        <mxCell id="wokvJsTOHcP-xqDJ0GcV-37" value="Ticket" style="rounded=0;whiteSpace=wrap;html=1;" vertex="1" parent="1">
          <mxGeometry x="140" y="620" width="110" height="50" as="geometry" />
        </mxCell>
        <mxCell id="wokvJsTOHcP-xqDJ0GcV-38" value="Nombre" style="ellipse;whiteSpace=wrap;html=1;" vertex="1" parent="1">
          <mxGeometry x="420" y="620" width="80" height="30" as="geometry" />
        </mxCell>
        <mxCell id="wokvJsTOHcP-xqDJ0GcV-39" value="Id" style="ellipse;whiteSpace=wrap;html=1;fontStyle=4" vertex="1" parent="1">
          <mxGeometry x="240" y="740" width="80" height="30" as="geometry" />
        </mxCell>
        <mxCell id="wokvJsTOHcP-xqDJ0GcV-40" value="tiene" style="rhombus;whiteSpace=wrap;html=1;" vertex="1" parent="1">
          <mxGeometry x="340" y="520" width="56" height="50" as="geometry" />
        </mxCell>
        <mxCell id="wokvJsTOHcP-xqDJ0GcV-41" value="tiene" style="rhombus;whiteSpace=wrap;html=1;" vertex="1" parent="1">
          <mxGeometry x="356" y="590" width="56" height="50" as="geometry" />
        </mxCell>
        <mxCell id="wokvJsTOHcP-xqDJ0GcV-42" value="n" style="endArrow=none;html=1;rounded=0;entryX=0;entryY=0.5;entryDx=0;entryDy=0;exitX=1;exitY=0.5;exitDx=0;exitDy=0;" edge="1" parent="1" source="wokvJsTOHcP-xqDJ0GcV-37" target="wokvJsTOHcP-xqDJ0GcV-41">
          <mxGeometry width="50" height="50" relative="1" as="geometry">
            <mxPoint x="250" y="650" as="sourcePoint" />
            <mxPoint x="300" y="600" as="targetPoint" />
          </mxGeometry>
        </mxCell>
        <mxCell id="wokvJsTOHcP-xqDJ0GcV-43" value="1" style="endArrow=none;html=1;rounded=0;exitX=1;exitY=0.5;exitDx=0;exitDy=0;entryX=0.25;entryY=1;entryDx=0;entryDy=0;" edge="1" parent="1" source="wokvJsTOHcP-xqDJ0GcV-41" target="wokvJsTOHcP-xqDJ0GcV-20">
          <mxGeometry width="50" height="50" relative="1" as="geometry">
            <mxPoint x="410" y="610" as="sourcePoint" />
            <mxPoint x="460" y="560" as="targetPoint" />
          </mxGeometry>
        </mxCell>
        <mxCell id="wokvJsTOHcP-xqDJ0GcV-44" value="" style="endArrow=none;html=1;rounded=0;entryX=0.5;entryY=1;entryDx=0;entryDy=0;exitX=1;exitY=0;exitDx=0;exitDy=0;" edge="1" parent="1" source="wokvJsTOHcP-xqDJ0GcV-37" target="wokvJsTOHcP-xqDJ0GcV-40">
          <mxGeometry width="50" height="50" relative="1" as="geometry">
            <mxPoint x="260" y="660" as="sourcePoint" />
            <mxPoint x="366" y="625" as="targetPoint" />
          </mxGeometry>
        </mxCell>
        <mxCell id="wokvJsTOHcP-xqDJ0GcV-45" value="" style="endArrow=none;html=1;rounded=0;entryX=1;entryY=1;entryDx=0;entryDy=0;exitX=0.5;exitY=0;exitDx=0;exitDy=0;" edge="1" parent="1" source="wokvJsTOHcP-xqDJ0GcV-40" target="wokvJsTOHcP-xqDJ0GcV-3">
          <mxGeometry width="50" height="50" relative="1" as="geometry">
            <mxPoint x="260" y="630" as="sourcePoint" />
            <mxPoint x="328" y="600" as="targetPoint" />
          </mxGeometry>
        </mxCell>
        <mxCell id="wokvJsTOHcP-xqDJ0GcV-47" value="Tipologia" style="rounded=0;whiteSpace=wrap;html=1;" vertex="1" parent="1">
          <mxGeometry x="-590" y="620" width="110" height="50" as="geometry" />
        </mxCell>
        <mxCell id="wokvJsTOHcP-xqDJ0GcV-48" value="Nombre" style="ellipse;whiteSpace=wrap;html=1;" vertex="1" parent="1">
          <mxGeometry x="-683" y="585" width="80" height="30" as="geometry" />
        </mxCell>
        <mxCell id="wokvJsTOHcP-xqDJ0GcV-49" value="Id" style="ellipse;whiteSpace=wrap;html=1;fontStyle=4" vertex="1" parent="1">
          <mxGeometry x="-600" y="560" width="80" height="30" as="geometry" />
        </mxCell>
        <mxCell id="wokvJsTOHcP-xqDJ0GcV-54" value="" style="edgeStyle=orthogonalEdgeStyle;rounded=0;orthogonalLoop=1;jettySize=auto;html=1;" edge="1" parent="1" source="wokvJsTOHcP-xqDJ0GcV-51" target="wokvJsTOHcP-xqDJ0GcV-47">
          <mxGeometry relative="1" as="geometry" />
        </mxCell>
        <mxCell id="wokvJsTOHcP-xqDJ0GcV-51" value="tiene" style="rhombus;whiteSpace=wrap;html=1;" vertex="1" parent="1">
          <mxGeometry x="24" y="620" width="56" height="50" as="geometry" />
        </mxCell>
        <mxCell id="wokvJsTOHcP-xqDJ0GcV-52" value="n" style="endArrow=none;html=1;rounded=0;entryX=0;entryY=0.5;entryDx=0;entryDy=0;exitX=1;exitY=0.5;exitDx=0;exitDy=0;" edge="1" parent="1" source="wokvJsTOHcP-xqDJ0GcV-51" target="wokvJsTOHcP-xqDJ0GcV-37">
          <mxGeometry width="50" height="50" relative="1" as="geometry">
            <mxPoint x="50" y="760" as="sourcePoint" />
            <mxPoint x="100" y="710" as="targetPoint" />
          </mxGeometry>
        </mxCell>
        <mxCell id="wokvJsTOHcP-xqDJ0GcV-53" value="1" style="endArrow=none;html=1;rounded=0;entryX=0;entryY=0.5;entryDx=0;entryDy=0;exitX=1;exitY=0.5;exitDx=0;exitDy=0;startArrow=none;startFill=0;endFill=0;" edge="1" parent="1" source="wokvJsTOHcP-xqDJ0GcV-47" target="wokvJsTOHcP-xqDJ0GcV-51">
          <mxGeometry width="50" height="50" relative="1" as="geometry">
            <mxPoint x="90" y="655" as="sourcePoint" />
            <mxPoint x="150" y="655" as="targetPoint" />
          </mxGeometry>
        </mxCell>
        <mxCell id="wokvJsTOHcP-xqDJ0GcV-56" value="FechaResolucion" style="ellipse;whiteSpace=wrap;html=1;" vertex="1" parent="1">
          <mxGeometry x="386" y="700" width="130" height="30" as="geometry" />
        </mxCell>
        <mxCell id="wokvJsTOHcP-xqDJ0GcV-57" value="Actividad" style="rounded=0;whiteSpace=wrap;html=1;" vertex="1" parent="1">
          <mxGeometry x="140" y="820" width="110" height="50" as="geometry" />
        </mxCell>
        <mxCell id="wokvJsTOHcP-xqDJ0GcV-58" value="FechaCierre" style="ellipse;whiteSpace=wrap;html=1;" vertex="1" parent="1">
          <mxGeometry x="380" y="740" width="130" height="30" as="geometry" />
        </mxCell>
        <mxCell id="wokvJsTOHcP-xqDJ0GcV-59" value="Empleado" style="rounded=0;whiteSpace=wrap;html=1;" vertex="1" parent="1">
          <mxGeometry x="-140" y="780" width="110" height="50" as="geometry" />
        </mxCell>
        <mxCell id="wokvJsTOHcP-xqDJ0GcV-61" value="Nombre" style="ellipse;whiteSpace=wrap;html=1;" vertex="1" parent="1">
          <mxGeometry x="-250" y="790" width="80" height="30" as="geometry" />
        </mxCell>
        <mxCell id="wokvJsTOHcP-xqDJ0GcV-62" value="Apellido" style="ellipse;whiteSpace=wrap;html=1;" vertex="1" parent="1">
          <mxGeometry x="-250" y="830" width="80" height="30" as="geometry" />
        </mxCell>
        <mxCell id="wokvJsTOHcP-xqDJ0GcV-63" value="Login" style="ellipse;whiteSpace=wrap;html=1;fontStyle=4" vertex="1" parent="1">
          <mxGeometry x="-200" y="860" width="80" height="30" as="geometry" />
        </mxCell>
        <mxCell id="wokvJsTOHcP-xqDJ0GcV-65" value="tiene" style="rhombus;whiteSpace=wrap;html=1;" vertex="1" parent="1">
          <mxGeometry x="24" y="720" width="56" height="50" as="geometry" />
        </mxCell>
        <mxCell id="wokvJsTOHcP-xqDJ0GcV-66" value="n" style="endArrow=none;html=1;rounded=0;entryX=0;entryY=1;entryDx=0;entryDy=0;exitX=1;exitY=0.5;exitDx=0;exitDy=0;" edge="1" parent="1" source="wokvJsTOHcP-xqDJ0GcV-65" target="wokvJsTOHcP-xqDJ0GcV-37">
          <mxGeometry width="50" height="50" relative="1" as="geometry">
            <mxPoint x="260" y="630" as="sourcePoint" />
            <mxPoint x="328" y="600" as="targetPoint" />
          </mxGeometry>
        </mxCell>
        <mxCell id="wokvJsTOHcP-xqDJ0GcV-67" value="1" style="endArrow=none;html=1;rounded=0;entryX=0;entryY=0.5;entryDx=0;entryDy=0;exitX=1;exitY=0.5;exitDx=0;exitDy=0;" edge="1" parent="1" source="wokvJsTOHcP-xqDJ0GcV-59" target="wokvJsTOHcP-xqDJ0GcV-65">
          <mxGeometry width="50" height="50" relative="1" as="geometry">
            <mxPoint x="90" y="755" as="sourcePoint" />
            <mxPoint x="150" y="680" as="targetPoint" />
          </mxGeometry>
        </mxCell>
        <mxCell id="wokvJsTOHcP-xqDJ0GcV-68" value="Id" style="ellipse;whiteSpace=wrap;html=1;fontStyle=4" vertex="1" parent="1">
          <mxGeometry x="276" y="800" width="80" height="30" as="geometry" />
        </mxCell>
        <mxCell id="wokvJsTOHcP-xqDJ0GcV-69" value="Descripcion" style="ellipse;whiteSpace=wrap;html=1;" vertex="1" parent="1">
          <mxGeometry x="276" y="840" width="80" height="30" as="geometry" />
        </mxCell>
        <mxCell id="wokvJsTOHcP-xqDJ0GcV-70" value="Fecha" style="ellipse;whiteSpace=wrap;html=1;" vertex="1" parent="1">
          <mxGeometry x="276" y="880" width="80" height="30" as="geometry" />
        </mxCell>
        <mxCell id="wokvJsTOHcP-xqDJ0GcV-72" value="tiene" style="rhombus;whiteSpace=wrap;html=1;" vertex="1" parent="1">
          <mxGeometry x="167" y="730" width="56" height="50" as="geometry" />
        </mxCell>
        <mxCell id="wokvJsTOHcP-xqDJ0GcV-73" value="n" style="endArrow=none;html=1;rounded=0;entryX=0.5;entryY=1;entryDx=0;entryDy=0;exitX=0.5;exitY=0;exitDx=0;exitDy=0;" edge="1" parent="1" source="wokvJsTOHcP-xqDJ0GcV-57" target="wokvJsTOHcP-xqDJ0GcV-72">
          <mxGeometry width="50" height="50" relative="1" as="geometry">
            <mxPoint x="60" y="870" as="sourcePoint" />
            <mxPoint x="110" y="820" as="targetPoint" />
          </mxGeometry>
        </mxCell>
        <mxCell id="wokvJsTOHcP-xqDJ0GcV-74" value="1" style="endArrow=none;html=1;rounded=0;entryX=0.5;entryY=1;entryDx=0;entryDy=0;exitX=0.5;exitY=0;exitDx=0;exitDy=0;" edge="1" parent="1" source="wokvJsTOHcP-xqDJ0GcV-72" target="wokvJsTOHcP-xqDJ0GcV-37">
          <mxGeometry width="50" height="50" relative="1" as="geometry">
            <mxPoint x="205" y="830" as="sourcePoint" />
            <mxPoint x="205" y="790" as="targetPoint" />
          </mxGeometry>
        </mxCell>
        <mxCell id="wokvJsTOHcP-xqDJ0GcV-75" value="" style="endArrow=none;html=1;rounded=0;entryX=0;entryY=0.5;entryDx=0;entryDy=0;exitX=1;exitY=0.5;exitDx=0;exitDy=0;" edge="1" parent="1" source="wokvJsTOHcP-xqDJ0GcV-57" target="wokvJsTOHcP-xqDJ0GcV-68">
          <mxGeometry width="50" height="50" relative="1" as="geometry">
            <mxPoint x="250" y="990" as="sourcePoint" />
            <mxPoint x="300" y="940" as="targetPoint" />
          </mxGeometry>
        </mxCell>
        <mxCell id="wokvJsTOHcP-xqDJ0GcV-76" value="" style="endArrow=none;html=1;rounded=0;entryX=0;entryY=0.5;entryDx=0;entryDy=0;exitX=1;exitY=0.5;exitDx=0;exitDy=0;" edge="1" parent="1" source="wokvJsTOHcP-xqDJ0GcV-57" target="wokvJsTOHcP-xqDJ0GcV-69">
          <mxGeometry width="50" height="50" relative="1" as="geometry">
            <mxPoint x="260" y="1000" as="sourcePoint" />
            <mxPoint x="310" y="950" as="targetPoint" />
          </mxGeometry>
        </mxCell>
        <mxCell id="wokvJsTOHcP-xqDJ0GcV-77" value="" style="endArrow=none;html=1;rounded=0;entryX=0;entryY=0.5;entryDx=0;entryDy=0;" edge="1" parent="1" target="wokvJsTOHcP-xqDJ0GcV-70">
          <mxGeometry width="50" height="50" relative="1" as="geometry">
            <mxPoint x="250" y="850" as="sourcePoint" />
            <mxPoint x="320" y="960" as="targetPoint" />
          </mxGeometry>
        </mxCell>
        <mxCell id="TKqr3nBfwtUhbOLua91k-7" value="" style="endArrow=none;html=1;rounded=0;exitX=0;exitY=0;exitDx=0;exitDy=0;entryX=1;entryY=1;entryDx=0;entryDy=0;" edge="1" parent="1" source="wokvJsTOHcP-xqDJ0GcV-28" target="wokvJsTOHcP-xqDJ0GcV-20">
          <mxGeometry width="50" height="50" relative="1" as="geometry">
            <mxPoint x="720" y="555" as="sourcePoint" />
            <mxPoint x="690" y="563" as="targetPoint" />
          </mxGeometry>
        </mxCell>
        <mxCell id="wokvJsTOHcP-xqDJ0GcV-79" value="" style="endArrow=none;html=1;rounded=0;entryX=0;entryY=1;entryDx=0;entryDy=0;" edge="1" parent="1" source="wokvJsTOHcP-xqDJ0GcV-63" target="wokvJsTOHcP-xqDJ0GcV-59">
          <mxGeometry width="50" height="50" relative="1" as="geometry">
            <mxPoint x="290" y="1030" as="sourcePoint" />
            <mxPoint x="340" y="980" as="targetPoint" />
          </mxGeometry>
        </mxCell>
        <mxCell id="TKqr3nBfwtUhbOLua91k-8" value="" style="endArrow=none;html=1;rounded=0;exitX=0;exitY=0.5;exitDx=0;exitDy=0;entryX=1;entryY=0.75;entryDx=0;entryDy=0;" edge="1" parent="1" source="wokvJsTOHcP-xqDJ0GcV-29" target="wokvJsTOHcP-xqDJ0GcV-20">
          <mxGeometry width="50" height="50" relative="1" as="geometry">
            <mxPoint x="730" y="565" as="sourcePoint" />
            <mxPoint x="700" y="573" as="targetPoint" />
          </mxGeometry>
        </mxCell>
        <mxCell id="wokvJsTOHcP-xqDJ0GcV-80" value="" style="endArrow=none;html=1;rounded=0;entryX=0;entryY=0.75;entryDx=0;entryDy=0;exitX=1;exitY=0.5;exitDx=0;exitDy=0;" edge="1" parent="1" source="wokvJsTOHcP-xqDJ0GcV-62" target="wokvJsTOHcP-xqDJ0GcV-59">
          <mxGeometry width="50" height="50" relative="1" as="geometry">
            <mxPoint x="300" y="1040" as="sourcePoint" />
            <mxPoint x="350" y="990" as="targetPoint" />
          </mxGeometry>
        </mxCell>
        <mxCell id="TKqr3nBfwtUhbOLua91k-9" value="" style="endArrow=none;html=1;rounded=0;exitX=0;exitY=1;exitDx=0;exitDy=0;entryX=1;entryY=0.25;entryDx=0;entryDy=0;" edge="1" parent="1" source="wokvJsTOHcP-xqDJ0GcV-22" target="wokvJsTOHcP-xqDJ0GcV-20">
          <mxGeometry width="50" height="50" relative="1" as="geometry">
            <mxPoint x="740" y="575" as="sourcePoint" />
            <mxPoint x="710" y="583" as="targetPoint" />
          </mxGeometry>
        </mxCell>
        <mxCell id="wokvJsTOHcP-xqDJ0GcV-81" value="" style="endArrow=none;html=1;rounded=0;entryX=0;entryY=0.5;entryDx=0;entryDy=0;exitX=1;exitY=0.5;exitDx=0;exitDy=0;" edge="1" parent="1" source="wokvJsTOHcP-xqDJ0GcV-61" target="wokvJsTOHcP-xqDJ0GcV-59">
          <mxGeometry width="50" height="50" relative="1" as="geometry">
            <mxPoint x="310" y="1050" as="sourcePoint" />
            <mxPoint x="360" y="1000" as="targetPoint" />
          </mxGeometry>
        </mxCell>
        <mxCell id="TKqr3nBfwtUhbOLua91k-10" value="" style="endArrow=none;html=1;rounded=0;exitX=0;exitY=1;exitDx=0;exitDy=0;entryX=0.75;entryY=0;entryDx=0;entryDy=0;" edge="1" parent="1" source="wokvJsTOHcP-xqDJ0GcV-21" target="wokvJsTOHcP-xqDJ0GcV-20">
          <mxGeometry width="50" height="50" relative="1" as="geometry">
            <mxPoint x="750" y="585" as="sourcePoint" />
            <mxPoint x="720" y="593" as="targetPoint" />
          </mxGeometry>
        </mxCell>
        <mxCell id="wokvJsTOHcP-xqDJ0GcV-83" value="" style="endArrow=none;html=1;rounded=0;entryX=0.625;entryY=1;entryDx=0;entryDy=0;entryPerimeter=0;" edge="1" parent="1" source="wokvJsTOHcP-xqDJ0GcV-47" target="wokvJsTOHcP-xqDJ0GcV-49">
          <mxGeometry width="50" height="50" relative="1" as="geometry">
            <mxPoint x="-560" y="825" as="sourcePoint" />
            <mxPoint x="-530" y="825" as="targetPoint" />
          </mxGeometry>
        </mxCell>
        <mxCell id="wokvJsTOHcP-xqDJ0GcV-84" value="" style="endArrow=none;html=1;rounded=0;entryX=1;entryY=0.5;entryDx=0;entryDy=0;exitX=0;exitY=0;exitDx=0;exitDy=0;" edge="1" parent="1" source="wokvJsTOHcP-xqDJ0GcV-47" target="wokvJsTOHcP-xqDJ0GcV-48">
          <mxGeometry width="50" height="50" relative="1" as="geometry">
            <mxPoint x="-506" y="630" as="sourcePoint" />
            <mxPoint x="-520" y="600" as="targetPoint" />
          </mxGeometry>
        </mxCell>
        <mxCell id="TKqr3nBfwtUhbOLua91k-12" value="" style="endArrow=none;html=1;rounded=0;exitX=0.5;exitY=1;exitDx=0;exitDy=0;" edge="1" parent="1" source="wokvJsTOHcP-xqDJ0GcV-11">
          <mxGeometry width="50" height="50" relative="1" as="geometry">
            <mxPoint x="651" y="325" as="sourcePoint" />
            <mxPoint x="600" y="180" as="targetPoint" />
          </mxGeometry>
        </mxCell>
        <mxCell id="wokvJsTOHcP-xqDJ0GcV-87" value="" style="endArrow=none;html=1;rounded=0;entryX=1;entryY=0.5;entryDx=0;entryDy=0;exitX=0;exitY=0;exitDx=0;exitDy=0;" edge="1" parent="1" source="wokvJsTOHcP-xqDJ0GcV-17" target="wokvJsTOHcP-xqDJ0GcV-18">
          <mxGeometry width="50" height="50" relative="1" as="geometry">
            <mxPoint x="-140" y="600" as="sourcePoint" />
            <mxPoint x="-160" y="575" as="targetPoint" />
          </mxGeometry>
        </mxCell>
        <mxCell id="wokvJsTOHcP-xqDJ0GcV-88" value="" style="endArrow=none;html=1;rounded=0;exitX=0.613;exitY=1.033;exitDx=0;exitDy=0;exitPerimeter=0;" edge="1" parent="1" source="wokvJsTOHcP-xqDJ0GcV-10" target="wokvJsTOHcP-xqDJ0GcV-3">
          <mxGeometry width="50" height="50" relative="1" as="geometry">
            <mxPoint x="-110" y="660" as="sourcePoint" />
            <mxPoint x="-130" y="635" as="targetPoint" />
          </mxGeometry>
        </mxCell>
        <mxCell id="wokvJsTOHcP-xqDJ0GcV-89" value="" style="endArrow=none;html=1;rounded=0;exitX=1;exitY=0.5;exitDx=0;exitDy=0;entryX=0.25;entryY=0;entryDx=0;entryDy=0;" edge="1" parent="1" source="wokvJsTOHcP-xqDJ0GcV-2" target="wokvJsTOHcP-xqDJ0GcV-3">
          <mxGeometry width="50" height="50" relative="1" as="geometry">
            <mxPoint x="249" y="141" as="sourcePoint" />
            <mxPoint x="266" y="190" as="targetPoint" />
          </mxGeometry>
        </mxCell>
        <mxCell id="wokvJsTOHcP-xqDJ0GcV-90" value="" style="endArrow=none;html=1;rounded=0;exitX=1;exitY=0.5;exitDx=0;exitDy=0;entryX=0;entryY=0.25;entryDx=0;entryDy=0;" edge="1" parent="1" source="wokvJsTOHcP-xqDJ0GcV-4" target="wokvJsTOHcP-xqDJ0GcV-3">
          <mxGeometry width="50" height="50" relative="1" as="geometry">
            <mxPoint x="259" y="151" as="sourcePoint" />
            <mxPoint x="276" y="200" as="targetPoint" />
          </mxGeometry>
        </mxCell>
        <mxCell id="wokvJsTOHcP-xqDJ0GcV-86" value="" style="endArrow=none;html=1;rounded=0;exitX=0.445;exitY=0.02;exitDx=0;exitDy=0;exitPerimeter=0;" edge="1" parent="1" source="wokvJsTOHcP-xqDJ0GcV-17" target="wokvJsTOHcP-xqDJ0GcV-19">
          <mxGeometry width="50" height="50" relative="1" as="geometry">
            <mxPoint x="-327" y="590" as="sourcePoint" />
            <mxPoint x="-347" y="565" as="targetPoint" />
          </mxGeometry>
        </mxCell>
        <mxCell id="wokvJsTOHcP-xqDJ0GcV-92" value="" style="endArrow=none;html=1;rounded=0;exitX=1;exitY=0.5;exitDx=0;exitDy=0;" edge="1" parent="1" source="wokvJsTOHcP-xqDJ0GcV-5">
          <mxGeometry width="50" height="50" relative="1" as="geometry">
            <mxPoint x="269" y="161" as="sourcePoint" />
            <mxPoint x="210" y="210" as="targetPoint" />
          </mxGeometry>
        </mxCell>
        <mxCell id="TKqr3nBfwtUhbOLua91k-13" value="" style="endArrow=none;html=1;rounded=0;exitX=0.5;exitY=1;exitDx=0;exitDy=0;entryX=0.75;entryY=0;entryDx=0;entryDy=0;" edge="1" parent="1" source="wokvJsTOHcP-xqDJ0GcV-12" target="wokvJsTOHcP-xqDJ0GcV-9">
          <mxGeometry width="50" height="50" relative="1" as="geometry">
            <mxPoint x="661" y="335" as="sourcePoint" />
            <mxPoint x="613" y="380" as="targetPoint" />
          </mxGeometry>
        </mxCell>
        <mxCell id="wokvJsTOHcP-xqDJ0GcV-93" value="" style="endArrow=none;html=1;rounded=0;entryX=1;entryY=0.5;entryDx=0;entryDy=0;" edge="1" parent="1" target="wokvJsTOHcP-xqDJ0GcV-6">
          <mxGeometry width="50" height="50" relative="1" as="geometry">
            <mxPoint x="210" y="220" as="sourcePoint" />
            <mxPoint x="296" y="220" as="targetPoint" />
          </mxGeometry>
        </mxCell>
        <mxCell id="wokvJsTOHcP-xqDJ0GcV-94" value="" style="endArrow=none;html=1;rounded=0;exitX=0.25;exitY=1;exitDx=0;exitDy=0;entryX=1;entryY=0;entryDx=0;entryDy=0;" edge="1" parent="1" source="wokvJsTOHcP-xqDJ0GcV-3" target="wokvJsTOHcP-xqDJ0GcV-7">
          <mxGeometry width="50" height="50" relative="1" as="geometry">
            <mxPoint x="289" y="181" as="sourcePoint" />
            <mxPoint x="306" y="230" as="targetPoint" />
          </mxGeometry>
        </mxCell>
        <mxCell id="wokvJsTOHcP-xqDJ0GcV-95" value="" style="endArrow=none;html=1;rounded=0;exitX=1;exitY=0.5;exitDx=0;exitDy=0;entryX=0;entryY=0.5;entryDx=0;entryDy=0;" edge="1" parent="1" source="kI5dZQiYECw0E-4BA1qE-5" target="kI5dZQiYECw0E-4BA1qE-1">
          <mxGeometry width="50" height="50" relative="1" as="geometry">
            <mxPoint x="-230" y="140" as="sourcePoint" />
            <mxPoint x="-225" y="200" as="targetPoint" />
          </mxGeometry>
        </mxCell>
        <mxCell id="wokvJsTOHcP-xqDJ0GcV-96" value="" style="endArrow=none;html=1;rounded=0;exitX=0;exitY=0.5;exitDx=0;exitDy=0;entryX=1;entryY=1;entryDx=0;entryDy=0;" edge="1" parent="1" source="wokvJsTOHcP-xqDJ0GcV-38" target="wokvJsTOHcP-xqDJ0GcV-37">
          <mxGeometry width="50" height="50" relative="1" as="geometry">
            <mxPoint x="199" y="481" as="sourcePoint" />
            <mxPoint x="186" y="450" as="targetPoint" />
          </mxGeometry>
        </mxCell>
        <mxCell id="wokvJsTOHcP-xqDJ0GcV-97" value="" style="endArrow=none;html=1;rounded=0;exitX=0;exitY=0.5;exitDx=0;exitDy=0;entryX=1;entryY=1;entryDx=0;entryDy=0;" edge="1" parent="1" source="wokvJsTOHcP-xqDJ0GcV-56" target="wokvJsTOHcP-xqDJ0GcV-37">
          <mxGeometry width="50" height="50" relative="1" as="geometry">
            <mxPoint x="199" y="481" as="sourcePoint" />
            <mxPoint x="186" y="450" as="targetPoint" />
          </mxGeometry>
        </mxCell>
        <mxCell id="wokvJsTOHcP-xqDJ0GcV-98" value="" style="endArrow=none;html=1;rounded=0;exitX=0;exitY=0.5;exitDx=0;exitDy=0;entryX=1;entryY=1;entryDx=0;entryDy=0;" edge="1" parent="1" source="wokvJsTOHcP-xqDJ0GcV-58" target="wokvJsTOHcP-xqDJ0GcV-37">
          <mxGeometry width="50" height="50" relative="1" as="geometry">
            <mxPoint x="209" y="491" as="sourcePoint" />
            <mxPoint x="196" y="460" as="targetPoint" />
          </mxGeometry>
        </mxCell>
        <mxCell id="wokvJsTOHcP-xqDJ0GcV-101" value="" style="endArrow=none;html=1;rounded=0;exitX=0.5;exitY=0;exitDx=0;exitDy=0;entryX=0.75;entryY=1;entryDx=0;entryDy=0;" edge="1" parent="1" source="wokvJsTOHcP-xqDJ0GcV-39" target="wokvJsTOHcP-xqDJ0GcV-37">
          <mxGeometry width="50" height="50" relative="1" as="geometry">
            <mxPoint x="229" y="511" as="sourcePoint" />
            <mxPoint x="216" y="480" as="targetPoint" />
          </mxGeometry>
        </mxCell>
        <mxCell id="TKqr3nBfwtUhbOLua91k-14" value="EstadoTicket" style="rounded=0;whiteSpace=wrap;html=1;" vertex="1" parent="1">
          <mxGeometry x="505" y="880" width="110" height="50" as="geometry" />
        </mxCell>
        <mxCell id="TKqr3nBfwtUhbOLua91k-15" value="tiene" style="rhombus;whiteSpace=wrap;html=1;" vertex="1" parent="1">
          <mxGeometry x="396" y="780" width="56" height="50" as="geometry" />
        </mxCell>
        <mxCell id="TKqr3nBfwtUhbOLua91k-16" value="n" style="endArrow=none;html=1;rounded=0;entryX=0;entryY=0.5;entryDx=0;entryDy=0;exitX=1;exitY=1;exitDx=0;exitDy=0;" edge="1" parent="1" source="wokvJsTOHcP-xqDJ0GcV-37" target="TKqr3nBfwtUhbOLua91k-15">
          <mxGeometry width="50" height="50" relative="1" as="geometry">
            <mxPoint x="473" y="805" as="sourcePoint" />
            <mxPoint x="593" y="900" as="targetPoint" />
          </mxGeometry>
        </mxCell>
        <mxCell id="TKqr3nBfwtUhbOLua91k-17" value="1" style="endArrow=none;html=1;rounded=0;entryX=0.25;entryY=0;entryDx=0;entryDy=0;exitX=1;exitY=0.5;exitDx=0;exitDy=0;" edge="1" parent="1" source="TKqr3nBfwtUhbOLua91k-15" target="TKqr3nBfwtUhbOLua91k-14">
          <mxGeometry width="50" height="50" relative="1" as="geometry">
            <mxPoint x="633" y="805" as="sourcePoint" />
            <mxPoint x="723" y="804.58" as="targetPoint" />
          </mxGeometry>
        </mxCell>
        <mxCell id="TKqr3nBfwtUhbOLua91k-20" value="Id" style="ellipse;whiteSpace=wrap;html=1;fontStyle=4" vertex="1" parent="1">
          <mxGeometry x="526" y="800" width="80" height="30" as="geometry" />
        </mxCell>
        <mxCell id="TKqr3nBfwtUhbOLua91k-21" value="Nombre" style="ellipse;whiteSpace=wrap;html=1;" vertex="1" parent="1">
          <mxGeometry x="626" y="810" width="80" height="30" as="geometry" />
        </mxCell>
        <mxCell id="TKqr3nBfwtUhbOLua91k-22" value="" style="endArrow=none;html=1;rounded=0;exitX=0.5;exitY=1;exitDx=0;exitDy=0;" edge="1" parent="1" source="TKqr3nBfwtUhbOLua91k-20">
          <mxGeometry width="50" height="50" relative="1" as="geometry">
            <mxPoint x="617" y="1025" as="sourcePoint" />
            <mxPoint x="566" y="880" as="targetPoint" />
          </mxGeometry>
        </mxCell>
        <mxCell id="TKqr3nBfwtUhbOLua91k-23" value="" style="endArrow=none;html=1;rounded=0;exitX=0.5;exitY=1;exitDx=0;exitDy=0;entryX=1;entryY=0.5;entryDx=0;entryDy=0;" edge="1" parent="1" source="TKqr3nBfwtUhbOLua91k-21" target="TKqr3nBfwtUhbOLua91k-14">
          <mxGeometry width="50" height="50" relative="1" as="geometry">
            <mxPoint x="627" y="1035" as="sourcePoint" />
            <mxPoint x="619" y="880" as="targetPoint" />
          </mxGeometry>
        </mxCell>
        <mxCell id="7hjXHeP_66YqCgdIwi5R-8" value="SLA" style="rounded=0;whiteSpace=wrap;html=1;" vertex="1" parent="1">
          <mxGeometry x="-350" y="500" width="110" height="50" as="geometry" />
        </mxCell>
        <mxCell id="7hjXHeP_66YqCgdIwi5R-11" value="tiempoMaximo" style="ellipse;whiteSpace=wrap;html=1;fontStyle=0" vertex="1" parent="1">
          <mxGeometry x="-360" y="420" width="110" height="30" as="geometry" />
        </mxCell>
        <mxCell id="7hjXHeP_66YqCgdIwi5R-13" value="" style="endArrow=none;html=1;rounded=0;exitX=0.5;exitY=0;exitDx=0;exitDy=0;entryX=0.5;entryY=1;entryDx=0;entryDy=0;" edge="1" parent="1" source="7hjXHeP_66YqCgdIwi5R-8" target="7hjXHeP_66YqCgdIwi5R-11">
          <mxGeometry width="50" height="50" relative="1" as="geometry">
            <mxPoint x="-340" y="510" as="sourcePoint" />
            <mxPoint x="-320" y="450" as="targetPoint" />
          </mxGeometry>
        </mxCell>
        <mxCell id="7hjXHeP_66YqCgdIwi5R-14" value="tiene" style="rhombus;whiteSpace=wrap;html=1;" vertex="1" parent="1">
          <mxGeometry x="-190" y="470" width="56" height="50" as="geometry" />
        </mxCell>
        <mxCell id="7hjXHeP_66YqCgdIwi5R-15" value="tiene" style="rhombus;whiteSpace=wrap;html=1;" vertex="1" parent="1">
          <mxGeometry x="-446" y="540" width="56" height="50" as="geometry" />
        </mxCell>
        <mxCell id="7hjXHeP_66YqCgdIwi5R-16" value="n" style="endArrow=none;html=1;rounded=0;entryX=0;entryY=0.5;entryDx=0;entryDy=0;exitX=1;exitY=0;exitDx=0;exitDy=0;" edge="1" parent="1" source="7hjXHeP_66YqCgdIwi5R-8" target="7hjXHeP_66YqCgdIwi5R-14">
          <mxGeometry width="50" height="50" relative="1" as="geometry">
            <mxPoint x="-186" y="530" as="sourcePoint" />
            <mxPoint x="-200" y="500" as="targetPoint" />
          </mxGeometry>
        </mxCell>
        <mxCell id="7hjXHeP_66YqCgdIwi5R-17" value="1" style="endArrow=none;html=1;rounded=0;entryX=0;entryY=1;entryDx=0;entryDy=0;exitX=1;exitY=0.5;exitDx=0;exitDy=0;" edge="1" parent="1" source="7hjXHeP_66YqCgdIwi5R-14" target="wokvJsTOHcP-xqDJ0GcV-17">
          <mxGeometry width="50" height="50" relative="1" as="geometry">
            <mxPoint x="140" y="520" as="sourcePoint" />
            <mxPoint x="140" y="490" as="targetPoint" />
          </mxGeometry>
        </mxCell>
        <mxCell id="7hjXHeP_66YqCgdIwi5R-19" value="n" style="endArrow=none;html=1;rounded=0;entryX=0;entryY=1;entryDx=0;entryDy=0;exitX=1;exitY=0.5;exitDx=0;exitDy=0;" edge="1" parent="1" source="7hjXHeP_66YqCgdIwi5R-15" target="7hjXHeP_66YqCgdIwi5R-8">
          <mxGeometry width="50" height="50" relative="1" as="geometry">
            <mxPoint x="-243" y="515" as="sourcePoint" />
            <mxPoint x="-193" y="510" as="targetPoint" />
          </mxGeometry>
        </mxCell>
        <mxCell id="7hjXHeP_66YqCgdIwi5R-20" value="1" style="endArrow=none;html=1;rounded=0;entryX=0;entryY=0.5;entryDx=0;entryDy=0;exitX=1;exitY=0;exitDx=0;exitDy=0;" edge="1" parent="1" source="wokvJsTOHcP-xqDJ0GcV-47" target="7hjXHeP_66YqCgdIwi5R-15">
          <mxGeometry width="50" height="50" relative="1" as="geometry">
            <mxPoint x="-486" y="595" as="sourcePoint" />
            <mxPoint x="-446" y="580" as="targetPoint" />
          </mxGeometry>
        </mxCell>
        <mxCell id="7hjXHeP_66YqCgdIwi5R-21" value="EstadoEmpleado" style="rounded=0;whiteSpace=wrap;html=1;" vertex="1" parent="1">
          <mxGeometry x="-90" y="950" width="110" height="50" as="geometry" />
        </mxCell>
        <mxCell id="7hjXHeP_66YqCgdIwi5R-22" value="Id" style="ellipse;whiteSpace=wrap;html=1;fontStyle=4" vertex="1" parent="1">
          <mxGeometry x="-100" y="1040" width="80" height="30" as="geometry" />
        </mxCell>
        <mxCell id="7hjXHeP_66YqCgdIwi5R-23" value="Nombre" style="ellipse;whiteSpace=wrap;html=1;" vertex="1" parent="1">
          <mxGeometry y="1040" width="80" height="30" as="geometry" />
        </mxCell>
        <mxCell id="7hjXHeP_66YqCgdIwi5R-24" value="" style="endArrow=none;html=1;rounded=0;entryX=0.25;entryY=1;entryDx=0;entryDy=0;" edge="1" parent="1" target="7hjXHeP_66YqCgdIwi5R-21">
          <mxGeometry width="50" height="50" relative="1" as="geometry">
            <mxPoint x="-66.5" y="1040" as="sourcePoint" />
            <mxPoint x="-53.5" y="1010" as="targetPoint" />
          </mxGeometry>
        </mxCell>
        <mxCell id="7hjXHeP_66YqCgdIwi5R-25" value="" style="endArrow=none;html=1;rounded=0;entryX=0.927;entryY=1.02;entryDx=0;entryDy=0;entryPerimeter=0;" edge="1" parent="1" target="7hjXHeP_66YqCgdIwi5R-21">
          <mxGeometry width="50" height="50" relative="1" as="geometry">
            <mxPoint x="37.75" y="1040" as="sourcePoint" />
            <mxPoint x="42.25" y="1000" as="targetPoint" />
          </mxGeometry>
        </mxCell>
        <mxCell id="7hjXHeP_66YqCgdIwi5R-26" value="tiene" style="rhombus;whiteSpace=wrap;html=1;" vertex="1" parent="1">
          <mxGeometry x="-56" y="870" width="56" height="50" as="geometry" />
        </mxCell>
        <mxCell id="7hjXHeP_66YqCgdIwi5R-27" value="n" style="endArrow=none;html=1;rounded=0;entryX=1;entryY=1;entryDx=0;entryDy=0;exitX=0.5;exitY=0;exitDx=0;exitDy=0;" edge="1" parent="1" source="7hjXHeP_66YqCgdIwi5R-26" target="wokvJsTOHcP-xqDJ0GcV-59">
          <mxGeometry width="50" height="50" relative="1" as="geometry">
            <mxPoint x="-20" y="815" as="sourcePoint" />
            <mxPoint x="34" y="755" as="targetPoint" />
          </mxGeometry>
        </mxCell>
        <mxCell id="7hjXHeP_66YqCgdIwi5R-28" value="1" style="endArrow=none;html=1;rounded=0;entryX=0.5;entryY=1;entryDx=0;entryDy=0;exitX=0.636;exitY=-0.02;exitDx=0;exitDy=0;exitPerimeter=0;" edge="1" parent="1" source="7hjXHeP_66YqCgdIwi5R-21" target="7hjXHeP_66YqCgdIwi5R-26">
          <mxGeometry width="50" height="50" relative="1" as="geometry">
            <mxPoint x="-18" y="880" as="sourcePoint" />
            <mxPoint x="-20" y="840" as="targetPoint" />
          </mxGeometry>
        </mxCell>
        <mxCell id="7hjXHeP_66YqCgdIwi5R-29" value="FechaApertura" style="ellipse;whiteSpace=wrap;html=1;" vertex="1" parent="1">
          <mxGeometry x="386" y="660" width="130" height="30" as="geometry" />
        </mxCell>
        <mxCell id="7hjXHeP_66YqCgdIwi5R-30" value="" style="endArrow=none;html=1;rounded=0;exitX=0;exitY=0.5;exitDx=0;exitDy=0;" edge="1" parent="1" source="7hjXHeP_66YqCgdIwi5R-29">
          <mxGeometry width="50" height="50" relative="1" as="geometry">
            <mxPoint x="396" y="725" as="sourcePoint" />
            <mxPoint x="250" y="670" as="targetPoint" />
          </mxGeometry>
        </mxCell>
        <mxCell id="du7uRjdgH2H0Q7z8lPDz-1" value="TiempoPendiente" style="ellipse;whiteSpace=wrap;html=1;" vertex="1" parent="1">
          <mxGeometry x="140" y="550" width="130" height="30" as="geometry" />
        </mxCell>
        <mxCell id="du7uRjdgH2H0Q7z8lPDz-2" value="" style="endArrow=none;html=1;rounded=0;exitX=0.5;exitY=1;exitDx=0;exitDy=0;" edge="1" parent="1" source="du7uRjdgH2H0Q7z8lPDz-1" target="wokvJsTOHcP-xqDJ0GcV-37">
          <mxGeometry width="50" height="50" relative="1" as="geometry">
            <mxPoint x="430" y="645" as="sourcePoint" />
            <mxPoint x="260" y="680" as="targetPoint" />
          </mxGeometry>
        </mxCell>
        <mxCell id="kI5dZQiYECw0E-4BA1qE-1" value="Notificacion" style="rounded=0;whiteSpace=wrap;html=1;" vertex="1" parent="1">
          <mxGeometry x="-230" y="200" width="110" height="50" as="geometry" />
        </mxCell>
        <mxCell id="kI5dZQiYECw0E-4BA1qE-2" value="tiene" style="rhombus;whiteSpace=wrap;html=1;" vertex="1" parent="1">
          <mxGeometry x="-55" y="180" width="56" height="50" as="geometry" />
        </mxCell>
        <mxCell id="kI5dZQiYECw0E-4BA1qE-3" value="tiene" style="rhombus;whiteSpace=wrap;html=1;" vertex="1" parent="1">
          <mxGeometry x="-55" y="260" width="56" height="50" as="geometry" />
        </mxCell>
        <mxCell id="kI5dZQiYECw0E-4BA1qE-4" value="Id" style="ellipse;whiteSpace=wrap;html=1;fontStyle=4" vertex="1" parent="1">
          <mxGeometry x="-350" y="130" width="80" height="30" as="geometry" />
        </mxCell>
        <mxCell id="kI5dZQiYECw0E-4BA1qE-5" value="CuerpoEmail" style="ellipse;whiteSpace=wrap;html=1;" vertex="1" parent="1">
          <mxGeometry x="-370" y="170" width="80" height="30" as="geometry" />
        </mxCell>
        <mxCell id="kI5dZQiYECw0E-4BA1qE-6" value="" style="endArrow=none;html=1;rounded=0;entryX=0;entryY=0;entryDx=0;entryDy=0;exitX=0.963;exitY=0.867;exitDx=0;exitDy=0;exitPerimeter=0;" edge="1" parent="1" source="kI5dZQiYECw0E-4BA1qE-4" target="kI5dZQiYECw0E-4BA1qE-1">
          <mxGeometry width="50" height="50" relative="1" as="geometry">
            <mxPoint x="-260" y="160" as="sourcePoint" />
            <mxPoint x="-215" y="210" as="targetPoint" />
          </mxGeometry>
        </mxCell>
        <mxCell id="kI5dZQiYECw0E-4BA1qE-7" value="n" style="endArrow=none;html=1;rounded=0;entryX=1;entryY=0.25;entryDx=0;entryDy=0;exitX=0;exitY=0.5;exitDx=0;exitDy=0;" edge="1" parent="1" source="kI5dZQiYECw0E-4BA1qE-2" target="kI5dZQiYECw0E-4BA1qE-1">
          <mxGeometry width="50" height="50" relative="1" as="geometry">
            <mxPoint x="-263" y="166" as="sourcePoint" />
            <mxPoint x="-220" y="210" as="targetPoint" />
          </mxGeometry>
        </mxCell>
        <mxCell id="kI5dZQiYECw0E-4BA1qE-8" value="1" style="endArrow=none;html=1;rounded=0;entryX=0.982;entryY=0.6;entryDx=0;entryDy=0;exitX=0;exitY=0.5;exitDx=0;exitDy=0;entryPerimeter=0;" edge="1" parent="1" source="wokvJsTOHcP-xqDJ0GcV-3" target="kI5dZQiYECw0E-4BA1qE-2">
          <mxGeometry width="50" height="50" relative="1" as="geometry">
            <mxPoint x="65" y="192" as="sourcePoint" />
            <mxPoint y="200" as="targetPoint" />
          </mxGeometry>
        </mxCell>
        <mxCell id="kI5dZQiYECw0E-4BA1qE-9" value="n" style="endArrow=none;html=1;rounded=0;entryX=1;entryY=0.5;entryDx=0;entryDy=0;exitX=0;exitY=0.5;exitDx=0;exitDy=0;" edge="1" parent="1" source="kI5dZQiYECw0E-4BA1qE-3" target="kI5dZQiYECw0E-4BA1qE-1">
          <mxGeometry width="50" height="50" relative="1" as="geometry">
            <mxPoint x="-45" y="215" as="sourcePoint" />
            <mxPoint x="-110" y="223" as="targetPoint" />
          </mxGeometry>
        </mxCell>
        <mxCell id="kI5dZQiYECw0E-4BA1qE-10" value="1" style="endArrow=none;html=1;rounded=0;entryX=1;entryY=0.5;entryDx=0;entryDy=0;exitX=0;exitY=0;exitDx=0;exitDy=0;" edge="1" parent="1" source="wokvJsTOHcP-xqDJ0GcV-37" target="kI5dZQiYECw0E-4BA1qE-3">
          <mxGeometry width="50" height="50" relative="1" as="geometry">
            <mxPoint x="-45" y="295" as="sourcePoint" />
            <mxPoint x="-110" y="235" as="targetPoint" />
          </mxGeometry>
        </mxCell>
        <mxCell id="kI5dZQiYECw0E-4BA1qE-11" value="FechaEnvio" style="ellipse;whiteSpace=wrap;html=1;" vertex="1" parent="1">
          <mxGeometry x="-380" y="210" width="80" height="30" as="geometry" />
        </mxCell>
        <mxCell id="kI5dZQiYECw0E-4BA1qE-12" value="" style="endArrow=none;html=1;rounded=0;exitX=1;exitY=0.5;exitDx=0;exitDy=0;" edge="1" parent="1" source="kI5dZQiYECw0E-4BA1qE-11">
          <mxGeometry width="50" height="50" relative="1" as="geometry">
            <mxPoint x="-280" y="195" as="sourcePoint" />
            <mxPoint x="-230" y="230" as="targetPoint" />
          </mxGeometry>
        </mxCell>
        <mxCell id="kI5dZQiYECw0E-4BA1qE-13" value="" style="endArrow=none;html=1;rounded=0;exitX=0;exitY=0.5;exitDx=0;exitDy=0;entryX=0.898;entryY=1.023;entryDx=0;entryDy=0;entryPerimeter=0;" edge="1" parent="1" target="wokvJsTOHcP-xqDJ0GcV-20">
          <mxGeometry width="50" height="50" relative="1" as="geometry">
            <mxPoint x="650" y="455" as="sourcePoint" />
            <mxPoint x="630" y="420" as="targetPoint" />
          </mxGeometry>
        </mxCell>
        <mxCell id="kI5dZQiYECw0E-4BA1qE-14" value="" style="endArrow=none;html=1;rounded=0;exitX=0;exitY=0.5;exitDx=0;exitDy=0;entryX=0.698;entryY=0.968;entryDx=0;entryDy=0;entryPerimeter=0;" edge="1" parent="1" source="wokvJsTOHcP-xqDJ0GcV-27" target="wokvJsTOHcP-xqDJ0GcV-20">
          <mxGeometry width="50" height="50" relative="1" as="geometry">
            <mxPoint x="660" y="465" as="sourcePoint" />
            <mxPoint x="619" y="421" as="targetPoint" />
          </mxGeometry>
        </mxCell>
        <mxCell id="kI5dZQiYECw0E-4BA1qE-15" value="" style="endArrow=none;html=1;rounded=0;exitX=0;exitY=0;exitDx=0;exitDy=0;entryX=0.5;entryY=1;entryDx=0;entryDy=0;" edge="1" parent="1" source="wokvJsTOHcP-xqDJ0GcV-25" target="wokvJsTOHcP-xqDJ0GcV-20">
          <mxGeometry width="50" height="50" relative="1" as="geometry">
            <mxPoint x="640" y="505" as="sourcePoint" />
            <mxPoint x="595" y="423" as="targetPoint" />
          </mxGeometry>
        </mxCell>
        <mxCell id="kI5dZQiYECw0E-4BA1qE-17" value="" style="endArrow=none;html=1;rounded=0;exitX=0.5;exitY=0;exitDx=0;exitDy=0;entryX=0.397;entryY=0.996;entryDx=0;entryDy=0;entryPerimeter=0;" edge="1" parent="1" source="wokvJsTOHcP-xqDJ0GcV-26" target="wokvJsTOHcP-xqDJ0GcV-20">
          <mxGeometry width="50" height="50" relative="1" as="geometry">
            <mxPoint x="621" y="535" as="sourcePoint" />
            <mxPoint x="575" y="420" as="targetPoint" />
          </mxGeometry>
        </mxCell>
        <mxCell id="jCgfvsQxlVlkNj7db4Rj-1" value="Calle" style="ellipse;whiteSpace=wrap;html=1;" vertex="1" parent="1">
          <mxGeometry x="650" y="440" width="80" height="30" as="geometry" />
        </mxCell>
        <mxCell id="0nTu0xSBcPrP5CsjwE6K-1" value="" style="endArrow=none;html=1;rounded=0;exitX=1;exitY=0.5;exitDx=0;exitDy=0;entryX=0;entryY=0.5;entryDx=0;entryDy=0;" edge="1" parent="1" source="0nTu0xSBcPrP5CsjwE6K-4" target="0nTu0xSBcPrP5CsjwE6K-2">
          <mxGeometry width="50" height="50" relative="1" as="geometry">
            <mxPoint x="-90" y="-50" as="sourcePoint" />
            <mxPoint x="-85" y="10" as="targetPoint" />
          </mxGeometry>
        </mxCell>
        <mxCell id="0nTu0xSBcPrP5CsjwE6K-2" value="HistorialEstados" style="rounded=0;whiteSpace=wrap;html=1;" vertex="1" parent="1">
          <mxGeometry x="-90" y="10" width="110" height="50" as="geometry" />
        </mxCell>
        <mxCell id="0nTu0xSBcPrP5CsjwE6K-3" value="Id" style="ellipse;whiteSpace=wrap;html=1;fontStyle=4" vertex="1" parent="1">
          <mxGeometry x="-210" y="-60" width="80" height="30" as="geometry" />
        </mxCell>
        <mxCell id="0nTu0xSBcPrP5CsjwE6K-4" value="ViejoEstado" style="ellipse;whiteSpace=wrap;html=1;" vertex="1" parent="1">
          <mxGeometry x="-230" y="-20" width="80" height="30" as="geometry" />
        </mxCell>
        <mxCell id="0nTu0xSBcPrP5CsjwE6K-5" value="" style="endArrow=none;html=1;rounded=0;entryX=0;entryY=0;entryDx=0;entryDy=0;exitX=0.963;exitY=0.867;exitDx=0;exitDy=0;exitPerimeter=0;" edge="1" parent="1" source="0nTu0xSBcPrP5CsjwE6K-3" target="0nTu0xSBcPrP5CsjwE6K-2">
          <mxGeometry width="50" height="50" relative="1" as="geometry">
            <mxPoint x="-120" y="-30" as="sourcePoint" />
            <mxPoint x="-75" y="20" as="targetPoint" />
          </mxGeometry>
        </mxCell>
        <mxCell id="0nTu0xSBcPrP5CsjwE6K-6" value="NuevoEstado" style="ellipse;whiteSpace=wrap;html=1;" vertex="1" parent="1">
          <mxGeometry x="-240" y="20" width="80" height="30" as="geometry" />
        </mxCell>
        <mxCell id="0nTu0xSBcPrP5CsjwE6K-7" value="" style="endArrow=none;html=1;rounded=0;exitX=1;exitY=0.5;exitDx=0;exitDy=0;" edge="1" parent="1" source="0nTu0xSBcPrP5CsjwE6K-6">
          <mxGeometry width="50" height="50" relative="1" as="geometry">
            <mxPoint x="-140" y="5" as="sourcePoint" />
            <mxPoint x="-90" y="40" as="targetPoint" />
          </mxGeometry>
        </mxCell>
        <mxCell id="0nTu0xSBcPrP5CsjwE6K-8" value="tiene" style="rhombus;whiteSpace=wrap;html=1;" vertex="1" parent="1">
          <mxGeometry y="90" width="56" height="50" as="geometry" />
        </mxCell>
        <mxCell id="0nTu0xSBcPrP5CsjwE6K-9" value="tiene" style="rhombus;whiteSpace=wrap;html=1;" vertex="1" parent="1">
          <mxGeometry x="-176" y="90" width="56" height="50" as="geometry" />
        </mxCell>
        <mxCell id="0nTu0xSBcPrP5CsjwE6K-13" value="n" style="endArrow=none;html=1;rounded=0;exitX=0.5;exitY=0;exitDx=0;exitDy=0;entryX=1;entryY=1;entryDx=0;entryDy=0;" edge="1" parent="1" source="0nTu0xSBcPrP5CsjwE6K-8" target="0nTu0xSBcPrP5CsjwE6K-2">
          <mxGeometry width="50" height="50" relative="1" as="geometry">
            <mxPoint x="102" y="25" as="sourcePoint" />
            <mxPoint x="30" y="33" as="targetPoint" />
          </mxGeometry>
        </mxCell>
        <mxCell id="0nTu0xSBcPrP5CsjwE6K-14" value="1" style="endArrow=none;html=1;rounded=0;exitX=0.5;exitY=0;exitDx=0;exitDy=0;entryX=0;entryY=1;entryDx=0;entryDy=0;" edge="1" parent="1" source="0nTu0xSBcPrP5CsjwE6K-9" target="0nTu0xSBcPrP5CsjwE6K-2">
          <mxGeometry width="50" height="50" relative="1" as="geometry">
            <mxPoint x="-90" y="100" as="sourcePoint" />
            <mxPoint x="-98" y="70" as="targetPoint" />
          </mxGeometry>
        </mxCell>
        <mxCell id="0nTu0xSBcPrP5CsjwE6K-15" value="n" style="endArrow=none;html=1;rounded=0;exitX=0.656;exitY=-0.036;exitDx=0;exitDy=0;entryX=0.5;entryY=1;entryDx=0;entryDy=0;exitPerimeter=0;" edge="1" parent="1" source="kI5dZQiYECw0E-4BA1qE-1" target="0nTu0xSBcPrP5CsjwE6K-9">
          <mxGeometry width="50" height="50" relative="1" as="geometry">
            <mxPoint x="-138" y="100" as="sourcePoint" />
            <mxPoint x="-80" y="70" as="targetPoint" />
          </mxGeometry>
        </mxCell>
        <mxCell id="0nTu0xSBcPrP5CsjwE6K-16" value="1" style="endArrow=none;html=1;rounded=0;entryX=0.5;entryY=1;entryDx=0;entryDy=0;exitX=0;exitY=0;exitDx=0;exitDy=0;" edge="1" parent="1" source="wokvJsTOHcP-xqDJ0GcV-37" target="0nTu0xSBcPrP5CsjwE6K-8">
          <mxGeometry width="50" height="50" relative="1" as="geometry">
            <mxPoint x="70" y="370" as="sourcePoint" />
            <mxPoint x="-138" y="150" as="targetPoint" />
          </mxGeometry>
        </mxCell>
      </root>
    </mxGraphModel>
  </diagram>
  <diagram id="EbKAX_PaMUzEGedFpTcH" name="DLR">
    <mxGraphModel grid="1" page="1" gridSize="10" guides="1" tooltips="1" connect="1" arrows="1" fold="1" pageScale="1" pageWidth="827" pageHeight="1169" math="0" shadow="0">
      <root>
        <mxCell id="0" />
        <mxCell id="1" parent="0" />
        <mxCell id="NO-O1Hd0-n7dzhrdDckZ-1" value="Clientes" style="shape=table;startSize=30;container=1;collapsible=1;childLayout=tableLayout;fixedRows=1;rowLines=0;fontStyle=1;align=center;resizeLast=1;html=1;" vertex="1" parent="1">
          <mxGeometry x="120" y="55" width="180" height="270" as="geometry" />
        </mxCell>
        <mxCell id="NO-O1Hd0-n7dzhrdDckZ-2" value="" style="shape=tableRow;horizontal=0;startSize=0;swimlaneHead=0;swimlaneBody=0;fillColor=none;collapsible=0;dropTarget=0;points=[[0,0.5],[1,0.5]];portConstraint=eastwest;top=0;left=0;right=0;bottom=1;" vertex="1" parent="NO-O1Hd0-n7dzhrdDckZ-1">
          <mxGeometry y="30" width="180" height="30" as="geometry" />
        </mxCell>
        <mxCell id="NO-O1Hd0-n7dzhrdDckZ-3" value="PK" style="shape=partialRectangle;connectable=0;fillColor=none;top=0;left=0;bottom=0;right=0;fontStyle=1;overflow=hidden;whiteSpace=wrap;html=1;" vertex="1" parent="NO-O1Hd0-n7dzhrdDckZ-2">
          <mxGeometry width="30" height="30" as="geometry">
            <mxRectangle width="30" height="30" as="alternateBounds" />
          </mxGeometry>
        </mxCell>
        <mxCell id="NO-O1Hd0-n7dzhrdDckZ-4" value="Id" style="shape=partialRectangle;connectable=0;fillColor=none;top=0;left=0;bottom=0;right=0;align=left;spacingLeft=6;fontStyle=5;overflow=hidden;whiteSpace=wrap;html=1;" vertex="1" parent="NO-O1Hd0-n7dzhrdDckZ-2">
          <mxGeometry x="30" width="150" height="30" as="geometry">
            <mxRectangle width="150" height="30" as="alternateBounds" />
          </mxGeometry>
        </mxCell>
        <mxCell id="zUBWa4ZNg71KvKK_oKHL-4" style="shape=tableRow;horizontal=0;startSize=0;swimlaneHead=0;swimlaneBody=0;fillColor=none;collapsible=0;dropTarget=0;points=[[0,0.5],[1,0.5]];portConstraint=eastwest;top=0;left=0;right=0;bottom=0;" vertex="1" parent="NO-O1Hd0-n7dzhrdDckZ-1">
          <mxGeometry y="60" width="180" height="30" as="geometry" />
        </mxCell>
        <mxCell id="zUBWa4ZNg71KvKK_oKHL-5" style="shape=partialRectangle;connectable=0;fillColor=none;top=0;left=0;bottom=0;right=0;editable=1;overflow=hidden;whiteSpace=wrap;html=1;" vertex="1" parent="zUBWa4ZNg71KvKK_oKHL-4">
          <mxGeometry width="30" height="30" as="geometry">
            <mxRectangle width="30" height="30" as="alternateBounds" />
          </mxGeometry>
        </mxCell>
        <mxCell id="zUBWa4ZNg71KvKK_oKHL-6" value="Nombre" style="shape=partialRectangle;connectable=0;fillColor=none;top=0;left=0;bottom=0;right=0;align=left;spacingLeft=6;overflow=hidden;whiteSpace=wrap;html=1;" vertex="1" parent="zUBWa4ZNg71KvKK_oKHL-4">
          <mxGeometry x="30" width="150" height="30" as="geometry">
            <mxRectangle width="150" height="30" as="alternateBounds" />
          </mxGeometry>
        </mxCell>
        <mxCell id="zUBWa4ZNg71KvKK_oKHL-1" style="shape=tableRow;horizontal=0;startSize=0;swimlaneHead=0;swimlaneBody=0;fillColor=none;collapsible=0;dropTarget=0;points=[[0,0.5],[1,0.5]];portConstraint=eastwest;top=0;left=0;right=0;bottom=0;" vertex="1" parent="NO-O1Hd0-n7dzhrdDckZ-1">
          <mxGeometry y="90" width="180" height="30" as="geometry" />
        </mxCell>
        <mxCell id="zUBWa4ZNg71KvKK_oKHL-2" style="shape=partialRectangle;connectable=0;fillColor=none;top=0;left=0;bottom=0;right=0;editable=1;overflow=hidden;whiteSpace=wrap;html=1;" vertex="1" parent="zUBWa4ZNg71KvKK_oKHL-1">
          <mxGeometry width="30" height="30" as="geometry">
            <mxRectangle width="30" height="30" as="alternateBounds" />
          </mxGeometry>
        </mxCell>
        <mxCell id="zUBWa4ZNg71KvKK_oKHL-3" value="Apellido" style="shape=partialRectangle;connectable=0;fillColor=none;top=0;left=0;bottom=0;right=0;align=left;spacingLeft=6;overflow=hidden;whiteSpace=wrap;html=1;" vertex="1" parent="zUBWa4ZNg71KvKK_oKHL-1">
          <mxGeometry x="30" width="150" height="30" as="geometry">
            <mxRectangle width="150" height="30" as="alternateBounds" />
          </mxGeometry>
        </mxCell>
        <mxCell id="Vw6jg1CFHnd4wLkRrCVd-2" style="shape=tableRow;horizontal=0;startSize=0;swimlaneHead=0;swimlaneBody=0;fillColor=none;collapsible=0;dropTarget=0;points=[[0,0.5],[1,0.5]];portConstraint=eastwest;top=0;left=0;right=0;bottom=0;" vertex="1" parent="NO-O1Hd0-n7dzhrdDckZ-1">
          <mxGeometry y="120" width="180" height="30" as="geometry" />
        </mxCell>
        <mxCell id="Vw6jg1CFHnd4wLkRrCVd-3" style="shape=partialRectangle;connectable=0;fillColor=none;top=0;left=0;bottom=0;right=0;editable=1;overflow=hidden;whiteSpace=wrap;html=1;" vertex="1" parent="Vw6jg1CFHnd4wLkRrCVd-2">
          <mxGeometry width="30" height="30" as="geometry">
            <mxRectangle width="30" height="30" as="alternateBounds" />
          </mxGeometry>
        </mxCell>
        <mxCell id="Vw6jg1CFHnd4wLkRrCVd-4" value="TipoDoc" style="shape=partialRectangle;connectable=0;fillColor=none;top=0;left=0;bottom=0;right=0;align=left;spacingLeft=6;overflow=hidden;whiteSpace=wrap;html=1;" vertex="1" parent="Vw6jg1CFHnd4wLkRrCVd-2">
          <mxGeometry x="30" width="150" height="30" as="geometry">
            <mxRectangle width="150" height="30" as="alternateBounds" />
          </mxGeometry>
        </mxCell>
        <mxCell id="H_faWaPxskpIFdhhHGFz-1" style="shape=tableRow;horizontal=0;startSize=0;swimlaneHead=0;swimlaneBody=0;fillColor=none;collapsible=0;dropTarget=0;points=[[0,0.5],[1,0.5]];portConstraint=eastwest;top=0;left=0;right=0;bottom=0;" vertex="1" parent="NO-O1Hd0-n7dzhrdDckZ-1">
          <mxGeometry y="150" width="180" height="30" as="geometry" />
        </mxCell>
        <mxCell id="H_faWaPxskpIFdhhHGFz-2" style="shape=partialRectangle;connectable=0;fillColor=none;top=0;left=0;bottom=0;right=0;editable=1;overflow=hidden;whiteSpace=wrap;html=1;" vertex="1" parent="H_faWaPxskpIFdhhHGFz-1">
          <mxGeometry width="30" height="30" as="geometry">
            <mxRectangle width="30" height="30" as="alternateBounds" />
          </mxGeometry>
        </mxCell>
        <mxCell id="H_faWaPxskpIFdhhHGFz-3" value="NroDoc" style="shape=partialRectangle;connectable=0;fillColor=none;top=0;left=0;bottom=0;right=0;align=left;spacingLeft=6;overflow=hidden;whiteSpace=wrap;html=1;" vertex="1" parent="H_faWaPxskpIFdhhHGFz-1">
          <mxGeometry x="30" width="150" height="30" as="geometry">
            <mxRectangle width="150" height="30" as="alternateBounds" />
          </mxGeometry>
        </mxCell>
        <mxCell id="H_faWaPxskpIFdhhHGFz-16" style="shape=tableRow;horizontal=0;startSize=0;swimlaneHead=0;swimlaneBody=0;fillColor=none;collapsible=0;dropTarget=0;points=[[0,0.5],[1,0.5]];portConstraint=eastwest;top=0;left=0;right=0;bottom=0;" vertex="1" parent="NO-O1Hd0-n7dzhrdDckZ-1">
          <mxGeometry y="180" width="180" height="30" as="geometry" />
        </mxCell>
        <mxCell id="H_faWaPxskpIFdhhHGFz-17" style="shape=partialRectangle;connectable=0;fillColor=none;top=0;left=0;bottom=0;right=0;editable=1;overflow=hidden;whiteSpace=wrap;html=1;" vertex="1" parent="H_faWaPxskpIFdhhHGFz-16">
          <mxGeometry width="30" height="30" as="geometry">
            <mxRectangle width="30" height="30" as="alternateBounds" />
          </mxGeometry>
        </mxCell>
        <mxCell id="H_faWaPxskpIFdhhHGFz-18" value="Email" style="shape=partialRectangle;connectable=0;fillColor=none;top=0;left=0;bottom=0;right=0;align=left;spacingLeft=6;overflow=hidden;whiteSpace=wrap;html=1;" vertex="1" parent="H_faWaPxskpIFdhhHGFz-16">
          <mxGeometry x="30" width="150" height="30" as="geometry">
            <mxRectangle width="150" height="30" as="alternateBounds" />
          </mxGeometry>
        </mxCell>
        <mxCell id="H_faWaPxskpIFdhhHGFz-13" style="shape=tableRow;horizontal=0;startSize=0;swimlaneHead=0;swimlaneBody=0;fillColor=none;collapsible=0;dropTarget=0;points=[[0,0.5],[1,0.5]];portConstraint=eastwest;top=0;left=0;right=0;bottom=0;" vertex="1" parent="NO-O1Hd0-n7dzhrdDckZ-1">
          <mxGeometry y="210" width="180" height="30" as="geometry" />
        </mxCell>
        <mxCell id="H_faWaPxskpIFdhhHGFz-14" style="shape=partialRectangle;connectable=0;fillColor=none;top=0;left=0;bottom=0;right=0;editable=1;overflow=hidden;whiteSpace=wrap;html=1;" vertex="1" parent="H_faWaPxskpIFdhhHGFz-13">
          <mxGeometry width="30" height="30" as="geometry">
            <mxRectangle width="30" height="30" as="alternateBounds" />
          </mxGeometry>
        </mxCell>
        <mxCell id="H_faWaPxskpIFdhhHGFz-15" value="FechaNacimiento" style="shape=partialRectangle;connectable=0;fillColor=none;top=0;left=0;bottom=0;right=0;align=left;spacingLeft=6;overflow=hidden;whiteSpace=wrap;html=1;" vertex="1" parent="H_faWaPxskpIFdhhHGFz-13">
          <mxGeometry x="30" width="150" height="30" as="geometry">
            <mxRectangle width="150" height="30" as="alternateBounds" />
          </mxGeometry>
        </mxCell>
        <mxCell id="NO-O1Hd0-n7dzhrdDckZ-8" value="" style="shape=tableRow;horizontal=0;startSize=0;swimlaneHead=0;swimlaneBody=0;fillColor=none;collapsible=0;dropTarget=0;points=[[0,0.5],[1,0.5]];portConstraint=eastwest;top=0;left=0;right=0;bottom=0;" vertex="1" parent="NO-O1Hd0-n7dzhrdDckZ-1">
          <mxGeometry y="240" width="180" height="30" as="geometry" />
        </mxCell>
        <mxCell id="NO-O1Hd0-n7dzhrdDckZ-9" value="FK" style="shape=partialRectangle;connectable=0;fillColor=none;top=0;left=0;bottom=0;right=0;editable=1;overflow=hidden;whiteSpace=wrap;html=1;" vertex="1" parent="NO-O1Hd0-n7dzhrdDckZ-8">
          <mxGeometry width="30" height="30" as="geometry">
            <mxRectangle width="30" height="30" as="alternateBounds" />
          </mxGeometry>
        </mxCell>
        <mxCell id="NO-O1Hd0-n7dzhrdDckZ-10" value="IdEstado" style="shape=partialRectangle;connectable=0;fillColor=none;top=0;left=0;bottom=0;right=0;align=left;spacingLeft=6;overflow=hidden;whiteSpace=wrap;html=1;" vertex="1" parent="NO-O1Hd0-n7dzhrdDckZ-8">
          <mxGeometry x="30" width="150" height="30" as="geometry">
            <mxRectangle width="150" height="30" as="alternateBounds" />
          </mxGeometry>
        </mxCell>
        <mxCell id="_MCc5wCg-1ufNQ62V-ov-1" value="EstadoCliente" style="shape=table;startSize=30;container=1;collapsible=1;childLayout=tableLayout;fixedRows=1;rowLines=0;fontStyle=1;align=center;resizeLast=1;html=1;" vertex="1" parent="1">
          <mxGeometry x="360" y="120" width="180" height="90" as="geometry" />
        </mxCell>
        <mxCell id="_MCc5wCg-1ufNQ62V-ov-2" value="" style="shape=tableRow;horizontal=0;startSize=0;swimlaneHead=0;swimlaneBody=0;fillColor=none;collapsible=0;dropTarget=0;points=[[0,0.5],[1,0.5]];portConstraint=eastwest;top=0;left=0;right=0;bottom=1;" vertex="1" parent="_MCc5wCg-1ufNQ62V-ov-1">
          <mxGeometry y="30" width="180" height="30" as="geometry" />
        </mxCell>
        <mxCell id="_MCc5wCg-1ufNQ62V-ov-3" value="PK" style="shape=partialRectangle;connectable=0;fillColor=none;top=0;left=0;bottom=0;right=0;fontStyle=1;overflow=hidden;whiteSpace=wrap;html=1;" vertex="1" parent="_MCc5wCg-1ufNQ62V-ov-2">
          <mxGeometry width="30" height="30" as="geometry">
            <mxRectangle width="30" height="30" as="alternateBounds" />
          </mxGeometry>
        </mxCell>
        <mxCell id="_MCc5wCg-1ufNQ62V-ov-4" value="Id" style="shape=partialRectangle;connectable=0;fillColor=none;top=0;left=0;bottom=0;right=0;align=left;spacingLeft=6;fontStyle=5;overflow=hidden;whiteSpace=wrap;html=1;" vertex="1" parent="_MCc5wCg-1ufNQ62V-ov-2">
          <mxGeometry x="30" width="150" height="30" as="geometry">
            <mxRectangle width="150" height="30" as="alternateBounds" />
          </mxGeometry>
        </mxCell>
        <mxCell id="_MCc5wCg-1ufNQ62V-ov-5" style="shape=tableRow;horizontal=0;startSize=0;swimlaneHead=0;swimlaneBody=0;fillColor=none;collapsible=0;dropTarget=0;points=[[0,0.5],[1,0.5]];portConstraint=eastwest;top=0;left=0;right=0;bottom=0;" vertex="1" parent="_MCc5wCg-1ufNQ62V-ov-1">
          <mxGeometry y="60" width="180" height="30" as="geometry" />
        </mxCell>
        <mxCell id="_MCc5wCg-1ufNQ62V-ov-6" style="shape=partialRectangle;connectable=0;fillColor=none;top=0;left=0;bottom=0;right=0;editable=1;overflow=hidden;whiteSpace=wrap;html=1;" vertex="1" parent="_MCc5wCg-1ufNQ62V-ov-5">
          <mxGeometry width="30" height="30" as="geometry">
            <mxRectangle width="30" height="30" as="alternateBounds" />
          </mxGeometry>
        </mxCell>
        <mxCell id="_MCc5wCg-1ufNQ62V-ov-7" value="Nombre" style="shape=partialRectangle;connectable=0;fillColor=none;top=0;left=0;bottom=0;right=0;align=left;spacingLeft=6;overflow=hidden;whiteSpace=wrap;html=1;" vertex="1" parent="_MCc5wCg-1ufNQ62V-ov-5">
          <mxGeometry x="30" width="150" height="30" as="geometry">
            <mxRectangle width="150" height="30" as="alternateBounds" />
          </mxGeometry>
        </mxCell>
        <mxCell id="McHkjwtzXaD8uaqgUrOi-20" value="ServicioContratado" style="shape=table;startSize=30;container=1;collapsible=1;childLayout=tableLayout;fixedRows=1;rowLines=0;fontStyle=1;align=center;resizeLast=1;html=1;" vertex="1" parent="1">
          <mxGeometry x="-140" y="-50" width="180" height="330" as="geometry" />
        </mxCell>
        <mxCell id="McHkjwtzXaD8uaqgUrOi-21" value="" style="shape=tableRow;horizontal=0;startSize=0;swimlaneHead=0;swimlaneBody=0;fillColor=none;collapsible=0;dropTarget=0;points=[[0,0.5],[1,0.5]];portConstraint=eastwest;top=0;left=0;right=0;bottom=1;" vertex="1" parent="McHkjwtzXaD8uaqgUrOi-20">
          <mxGeometry y="30" width="180" height="30" as="geometry" />
        </mxCell>
        <mxCell id="McHkjwtzXaD8uaqgUrOi-22" value="PK" style="shape=partialRectangle;connectable=0;fillColor=none;top=0;left=0;bottom=0;right=0;fontStyle=1;overflow=hidden;whiteSpace=wrap;html=1;" vertex="1" parent="McHkjwtzXaD8uaqgUrOi-21">
          <mxGeometry width="30" height="30" as="geometry">
            <mxRectangle width="30" height="30" as="alternateBounds" />
          </mxGeometry>
        </mxCell>
        <mxCell id="McHkjwtzXaD8uaqgUrOi-23" value="NroServicio" style="shape=partialRectangle;connectable=0;fillColor=none;top=0;left=0;bottom=0;right=0;align=left;spacingLeft=6;fontStyle=5;overflow=hidden;whiteSpace=wrap;html=1;" vertex="1" parent="McHkjwtzXaD8uaqgUrOi-21">
          <mxGeometry x="30" width="150" height="30" as="geometry">
            <mxRectangle width="150" height="30" as="alternateBounds" />
          </mxGeometry>
        </mxCell>
        <mxCell id="McHkjwtzXaD8uaqgUrOi-24" style="shape=tableRow;horizontal=0;startSize=0;swimlaneHead=0;swimlaneBody=0;fillColor=none;collapsible=0;dropTarget=0;points=[[0,0.5],[1,0.5]];portConstraint=eastwest;top=0;left=0;right=0;bottom=0;" vertex="1" parent="McHkjwtzXaD8uaqgUrOi-20">
          <mxGeometry y="60" width="180" height="30" as="geometry" />
        </mxCell>
        <mxCell id="McHkjwtzXaD8uaqgUrOi-25" style="shape=partialRectangle;connectable=0;fillColor=none;top=0;left=0;bottom=0;right=0;editable=1;overflow=hidden;whiteSpace=wrap;html=1;" vertex="1" parent="McHkjwtzXaD8uaqgUrOi-24">
          <mxGeometry width="30" height="30" as="geometry">
            <mxRectangle width="30" height="30" as="alternateBounds" />
          </mxGeometry>
        </mxCell>
        <mxCell id="McHkjwtzXaD8uaqgUrOi-26" value="Telefono" style="shape=partialRectangle;connectable=0;fillColor=none;top=0;left=0;bottom=0;right=0;align=left;spacingLeft=6;overflow=hidden;whiteSpace=wrap;html=1;" vertex="1" parent="McHkjwtzXaD8uaqgUrOi-24">
          <mxGeometry x="30" width="150" height="30" as="geometry">
            <mxRectangle width="150" height="30" as="alternateBounds" />
          </mxGeometry>
        </mxCell>
        <mxCell id="McHkjwtzXaD8uaqgUrOi-27" style="shape=tableRow;horizontal=0;startSize=0;swimlaneHead=0;swimlaneBody=0;fillColor=none;collapsible=0;dropTarget=0;points=[[0,0.5],[1,0.5]];portConstraint=eastwest;top=0;left=0;right=0;bottom=0;" vertex="1" parent="McHkjwtzXaD8uaqgUrOi-20">
          <mxGeometry y="90" width="180" height="30" as="geometry" />
        </mxCell>
        <mxCell id="McHkjwtzXaD8uaqgUrOi-28" style="shape=partialRectangle;connectable=0;fillColor=none;top=0;left=0;bottom=0;right=0;editable=1;overflow=hidden;whiteSpace=wrap;html=1;" vertex="1" parent="McHkjwtzXaD8uaqgUrOi-27">
          <mxGeometry width="30" height="30" as="geometry">
            <mxRectangle width="30" height="30" as="alternateBounds" />
          </mxGeometry>
        </mxCell>
        <mxCell id="McHkjwtzXaD8uaqgUrOi-29" value="Estado" style="shape=partialRectangle;connectable=0;fillColor=none;top=0;left=0;bottom=0;right=0;align=left;spacingLeft=6;overflow=hidden;whiteSpace=wrap;html=1;" vertex="1" parent="McHkjwtzXaD8uaqgUrOi-27">
          <mxGeometry x="30" width="150" height="30" as="geometry">
            <mxRectangle width="150" height="30" as="alternateBounds" />
          </mxGeometry>
        </mxCell>
        <mxCell id="McHkjwtzXaD8uaqgUrOi-30" value="" style="shape=tableRow;horizontal=0;startSize=0;swimlaneHead=0;swimlaneBody=0;fillColor=none;collapsible=0;dropTarget=0;points=[[0,0.5],[1,0.5]];portConstraint=eastwest;top=0;left=0;right=0;bottom=0;" vertex="1" parent="McHkjwtzXaD8uaqgUrOi-20">
          <mxGeometry y="120" width="180" height="30" as="geometry" />
        </mxCell>
        <mxCell id="McHkjwtzXaD8uaqgUrOi-31" value="" style="shape=partialRectangle;connectable=0;fillColor=none;top=0;left=0;bottom=0;right=0;editable=1;overflow=hidden;whiteSpace=wrap;html=1;" vertex="1" parent="McHkjwtzXaD8uaqgUrOi-30">
          <mxGeometry width="30" height="30" as="geometry">
            <mxRectangle width="30" height="30" as="alternateBounds" />
          </mxGeometry>
        </mxCell>
        <mxCell id="McHkjwtzXaD8uaqgUrOi-32" value="FechaInicio" style="shape=partialRectangle;connectable=0;fillColor=none;top=0;left=0;bottom=0;right=0;align=left;spacingLeft=6;overflow=hidden;whiteSpace=wrap;html=1;" vertex="1" parent="McHkjwtzXaD8uaqgUrOi-30">
          <mxGeometry x="30" width="150" height="30" as="geometry">
            <mxRectangle width="150" height="30" as="alternateBounds" />
          </mxGeometry>
        </mxCell>
        <mxCell id="58IjdG48viYUPbM44bAO-4" style="shape=tableRow;horizontal=0;startSize=0;swimlaneHead=0;swimlaneBody=0;fillColor=none;collapsible=0;dropTarget=0;points=[[0,0.5],[1,0.5]];portConstraint=eastwest;top=0;left=0;right=0;bottom=0;" vertex="1" parent="McHkjwtzXaD8uaqgUrOi-20">
          <mxGeometry y="150" width="180" height="30" as="geometry" />
        </mxCell>
        <mxCell id="58IjdG48viYUPbM44bAO-5" value="FK" style="shape=partialRectangle;connectable=0;fillColor=none;top=0;left=0;bottom=0;right=0;editable=1;overflow=hidden;whiteSpace=wrap;html=1;" vertex="1" parent="58IjdG48viYUPbM44bAO-4">
          <mxGeometry width="30" height="30" as="geometry">
            <mxRectangle width="30" height="30" as="alternateBounds" />
          </mxGeometry>
        </mxCell>
        <mxCell id="58IjdG48viYUPbM44bAO-6" value="IdServicio" style="shape=partialRectangle;connectable=0;fillColor=none;top=0;left=0;bottom=0;right=0;align=left;spacingLeft=6;overflow=hidden;whiteSpace=wrap;html=1;" vertex="1" parent="58IjdG48viYUPbM44bAO-4">
          <mxGeometry x="30" width="150" height="30" as="geometry">
            <mxRectangle width="150" height="30" as="alternateBounds" />
          </mxGeometry>
        </mxCell>
        <mxCell id="58IjdG48viYUPbM44bAO-1" style="shape=tableRow;horizontal=0;startSize=0;swimlaneHead=0;swimlaneBody=0;fillColor=none;collapsible=0;dropTarget=0;points=[[0,0.5],[1,0.5]];portConstraint=eastwest;top=0;left=0;right=0;bottom=0;" vertex="1" parent="McHkjwtzXaD8uaqgUrOi-20">
          <mxGeometry y="180" width="180" height="30" as="geometry" />
        </mxCell>
        <mxCell id="58IjdG48viYUPbM44bAO-2" value="FK" style="shape=partialRectangle;connectable=0;fillColor=none;top=0;left=0;bottom=0;right=0;editable=1;overflow=hidden;whiteSpace=wrap;html=1;" vertex="1" parent="58IjdG48viYUPbM44bAO-1">
          <mxGeometry width="30" height="30" as="geometry">
            <mxRectangle width="30" height="30" as="alternateBounds" />
          </mxGeometry>
        </mxCell>
        <mxCell id="58IjdG48viYUPbM44bAO-3" value="IdCliente" style="shape=partialRectangle;connectable=0;fillColor=none;top=0;left=0;bottom=0;right=0;align=left;spacingLeft=6;overflow=hidden;whiteSpace=wrap;html=1;" vertex="1" parent="58IjdG48viYUPbM44bAO-1">
          <mxGeometry x="30" width="150" height="30" as="geometry">
            <mxRectangle width="150" height="30" as="alternateBounds" />
          </mxGeometry>
        </mxCell>
        <mxCell id="Y-jkrGenECUPu-nulZXP-11" style="shape=tableRow;horizontal=0;startSize=0;swimlaneHead=0;swimlaneBody=0;fillColor=none;collapsible=0;dropTarget=0;points=[[0,0.5],[1,0.5]];portConstraint=eastwest;top=0;left=0;right=0;bottom=0;" vertex="1" parent="McHkjwtzXaD8uaqgUrOi-20">
          <mxGeometry y="210" width="180" height="30" as="geometry" />
        </mxCell>
        <mxCell id="Y-jkrGenECUPu-nulZXP-12" style="shape=partialRectangle;connectable=0;fillColor=none;top=0;left=0;bottom=0;right=0;editable=1;overflow=hidden;whiteSpace=wrap;html=1;" vertex="1" parent="Y-jkrGenECUPu-nulZXP-11">
          <mxGeometry width="30" height="30" as="geometry">
            <mxRectangle width="30" height="30" as="alternateBounds" />
          </mxGeometry>
        </mxCell>
        <mxCell id="Y-jkrGenECUPu-nulZXP-13" value="Calle" style="shape=partialRectangle;connectable=0;fillColor=none;top=0;left=0;bottom=0;right=0;align=left;spacingLeft=6;overflow=hidden;whiteSpace=wrap;html=1;" vertex="1" parent="Y-jkrGenECUPu-nulZXP-11">
          <mxGeometry x="30" width="150" height="30" as="geometry">
            <mxRectangle width="150" height="30" as="alternateBounds" />
          </mxGeometry>
        </mxCell>
        <mxCell id="Y-jkrGenECUPu-nulZXP-8" style="shape=tableRow;horizontal=0;startSize=0;swimlaneHead=0;swimlaneBody=0;fillColor=none;collapsible=0;dropTarget=0;points=[[0,0.5],[1,0.5]];portConstraint=eastwest;top=0;left=0;right=0;bottom=0;" vertex="1" parent="McHkjwtzXaD8uaqgUrOi-20">
          <mxGeometry y="240" width="180" height="30" as="geometry" />
        </mxCell>
        <mxCell id="Y-jkrGenECUPu-nulZXP-9" style="shape=partialRectangle;connectable=0;fillColor=none;top=0;left=0;bottom=0;right=0;editable=1;overflow=hidden;whiteSpace=wrap;html=1;" vertex="1" parent="Y-jkrGenECUPu-nulZXP-8">
          <mxGeometry width="30" height="30" as="geometry">
            <mxRectangle width="30" height="30" as="alternateBounds" />
          </mxGeometry>
        </mxCell>
        <mxCell id="Y-jkrGenECUPu-nulZXP-10" value="Piso" style="shape=partialRectangle;connectable=0;fillColor=none;top=0;left=0;bottom=0;right=0;align=left;spacingLeft=6;overflow=hidden;whiteSpace=wrap;html=1;" vertex="1" parent="Y-jkrGenECUPu-nulZXP-8">
          <mxGeometry x="30" width="150" height="30" as="geometry">
            <mxRectangle width="150" height="30" as="alternateBounds" />
          </mxGeometry>
        </mxCell>
        <mxCell id="Y-jkrGenECUPu-nulZXP-5" style="shape=tableRow;horizontal=0;startSize=0;swimlaneHead=0;swimlaneBody=0;fillColor=none;collapsible=0;dropTarget=0;points=[[0,0.5],[1,0.5]];portConstraint=eastwest;top=0;left=0;right=0;bottom=0;" vertex="1" parent="McHkjwtzXaD8uaqgUrOi-20">
          <mxGeometry y="270" width="180" height="30" as="geometry" />
        </mxCell>
        <mxCell id="Y-jkrGenECUPu-nulZXP-6" style="shape=partialRectangle;connectable=0;fillColor=none;top=0;left=0;bottom=0;right=0;editable=1;overflow=hidden;whiteSpace=wrap;html=1;" vertex="1" parent="Y-jkrGenECUPu-nulZXP-5">
          <mxGeometry width="30" height="30" as="geometry">
            <mxRectangle width="30" height="30" as="alternateBounds" />
          </mxGeometry>
        </mxCell>
        <mxCell id="Y-jkrGenECUPu-nulZXP-7" value="Numero" style="shape=partialRectangle;connectable=0;fillColor=none;top=0;left=0;bottom=0;right=0;align=left;spacingLeft=6;overflow=hidden;whiteSpace=wrap;html=1;" vertex="1" parent="Y-jkrGenECUPu-nulZXP-5">
          <mxGeometry x="30" width="150" height="30" as="geometry">
            <mxRectangle width="150" height="30" as="alternateBounds" />
          </mxGeometry>
        </mxCell>
        <mxCell id="Y-jkrGenECUPu-nulZXP-2" style="shape=tableRow;horizontal=0;startSize=0;swimlaneHead=0;swimlaneBody=0;fillColor=none;collapsible=0;dropTarget=0;points=[[0,0.5],[1,0.5]];portConstraint=eastwest;top=0;left=0;right=0;bottom=0;" vertex="1" parent="McHkjwtzXaD8uaqgUrOi-20">
          <mxGeometry y="300" width="180" height="30" as="geometry" />
        </mxCell>
        <mxCell id="Y-jkrGenECUPu-nulZXP-3" style="shape=partialRectangle;connectable=0;fillColor=none;top=0;left=0;bottom=0;right=0;editable=1;overflow=hidden;whiteSpace=wrap;html=1;" vertex="1" parent="Y-jkrGenECUPu-nulZXP-2">
          <mxGeometry width="30" height="30" as="geometry">
            <mxRectangle width="30" height="30" as="alternateBounds" />
          </mxGeometry>
        </mxCell>
        <mxCell id="Y-jkrGenECUPu-nulZXP-4" value="Departamento" style="shape=partialRectangle;connectable=0;fillColor=none;top=0;left=0;bottom=0;right=0;align=left;spacingLeft=6;overflow=hidden;whiteSpace=wrap;html=1;" vertex="1" parent="Y-jkrGenECUPu-nulZXP-2">
          <mxGeometry x="30" width="150" height="30" as="geometry">
            <mxRectangle width="150" height="30" as="alternateBounds" />
          </mxGeometry>
        </mxCell>
        <mxCell id="Sq3rAVazc_ZkKV5lc2nH-1" value="Servicio" style="shape=table;startSize=30;container=1;collapsible=1;childLayout=tableLayout;fixedRows=1;rowLines=0;fontStyle=1;align=center;resizeLast=1;html=1;" vertex="1" parent="1">
          <mxGeometry x="-380" y="70" width="180" height="90" as="geometry" />
        </mxCell>
        <mxCell id="Sq3rAVazc_ZkKV5lc2nH-2" value="" style="shape=tableRow;horizontal=0;startSize=0;swimlaneHead=0;swimlaneBody=0;fillColor=none;collapsible=0;dropTarget=0;points=[[0,0.5],[1,0.5]];portConstraint=eastwest;top=0;left=0;right=0;bottom=1;" vertex="1" parent="Sq3rAVazc_ZkKV5lc2nH-1">
          <mxGeometry y="30" width="180" height="30" as="geometry" />
        </mxCell>
        <mxCell id="Sq3rAVazc_ZkKV5lc2nH-3" value="PK" style="shape=partialRectangle;connectable=0;fillColor=none;top=0;left=0;bottom=0;right=0;fontStyle=1;overflow=hidden;whiteSpace=wrap;html=1;" vertex="1" parent="Sq3rAVazc_ZkKV5lc2nH-2">
          <mxGeometry width="30" height="30" as="geometry">
            <mxRectangle width="30" height="30" as="alternateBounds" />
          </mxGeometry>
        </mxCell>
        <mxCell id="Sq3rAVazc_ZkKV5lc2nH-4" value="Id" style="shape=partialRectangle;connectable=0;fillColor=none;top=0;left=0;bottom=0;right=0;align=left;spacingLeft=6;fontStyle=5;overflow=hidden;whiteSpace=wrap;html=1;" vertex="1" parent="Sq3rAVazc_ZkKV5lc2nH-2">
          <mxGeometry x="30" width="150" height="30" as="geometry">
            <mxRectangle width="150" height="30" as="alternateBounds" />
          </mxGeometry>
        </mxCell>
        <mxCell id="Sq3rAVazc_ZkKV5lc2nH-5" style="shape=tableRow;horizontal=0;startSize=0;swimlaneHead=0;swimlaneBody=0;fillColor=none;collapsible=0;dropTarget=0;points=[[0,0.5],[1,0.5]];portConstraint=eastwest;top=0;left=0;right=0;bottom=0;" vertex="1" parent="Sq3rAVazc_ZkKV5lc2nH-1">
          <mxGeometry y="60" width="180" height="30" as="geometry" />
        </mxCell>
        <mxCell id="Sq3rAVazc_ZkKV5lc2nH-6" style="shape=partialRectangle;connectable=0;fillColor=none;top=0;left=0;bottom=0;right=0;editable=1;overflow=hidden;whiteSpace=wrap;html=1;" vertex="1" parent="Sq3rAVazc_ZkKV5lc2nH-5">
          <mxGeometry width="30" height="30" as="geometry">
            <mxRectangle width="30" height="30" as="alternateBounds" />
          </mxGeometry>
        </mxCell>
        <mxCell id="Sq3rAVazc_ZkKV5lc2nH-7" value="Nombre" style="shape=partialRectangle;connectable=0;fillColor=none;top=0;left=0;bottom=0;right=0;align=left;spacingLeft=6;overflow=hidden;whiteSpace=wrap;html=1;" vertex="1" parent="Sq3rAVazc_ZkKV5lc2nH-5">
          <mxGeometry x="30" width="150" height="30" as="geometry">
            <mxRectangle width="150" height="30" as="alternateBounds" />
          </mxGeometry>
        </mxCell>
        <mxCell id="BRkfBDlrN-Yj64_jAyUv-1" value="Ticket" style="shape=table;startSize=30;container=1;collapsible=1;childLayout=tableLayout;fixedRows=1;rowLines=0;fontStyle=1;align=center;resizeLast=1;html=1;" vertex="1" parent="1">
          <mxGeometry x="-140" y="340" width="180" height="360" as="geometry" />
        </mxCell>
        <mxCell id="BRkfBDlrN-Yj64_jAyUv-2" value="" style="shape=tableRow;horizontal=0;startSize=0;swimlaneHead=0;swimlaneBody=0;fillColor=none;collapsible=0;dropTarget=0;points=[[0,0.5],[1,0.5]];portConstraint=eastwest;top=0;left=0;right=0;bottom=1;" vertex="1" parent="BRkfBDlrN-Yj64_jAyUv-1">
          <mxGeometry y="30" width="180" height="30" as="geometry" />
        </mxCell>
        <mxCell id="BRkfBDlrN-Yj64_jAyUv-3" value="PK" style="shape=partialRectangle;connectable=0;fillColor=none;top=0;left=0;bottom=0;right=0;fontStyle=1;overflow=hidden;whiteSpace=wrap;html=1;" vertex="1" parent="BRkfBDlrN-Yj64_jAyUv-2">
          <mxGeometry width="30" height="30" as="geometry">
            <mxRectangle width="30" height="30" as="alternateBounds" />
          </mxGeometry>
        </mxCell>
        <mxCell id="BRkfBDlrN-Yj64_jAyUv-4" value="Id" style="shape=partialRectangle;connectable=0;fillColor=none;top=0;left=0;bottom=0;right=0;align=left;spacingLeft=6;fontStyle=5;overflow=hidden;whiteSpace=wrap;html=1;" vertex="1" parent="BRkfBDlrN-Yj64_jAyUv-2">
          <mxGeometry x="30" width="150" height="30" as="geometry">
            <mxRectangle width="150" height="30" as="alternateBounds" />
          </mxGeometry>
        </mxCell>
        <mxCell id="BRkfBDlrN-Yj64_jAyUv-5" style="shape=tableRow;horizontal=0;startSize=0;swimlaneHead=0;swimlaneBody=0;fillColor=none;collapsible=0;dropTarget=0;points=[[0,0.5],[1,0.5]];portConstraint=eastwest;top=0;left=0;right=0;bottom=0;" vertex="1" parent="BRkfBDlrN-Yj64_jAyUv-1">
          <mxGeometry y="60" width="180" height="30" as="geometry" />
        </mxCell>
        <mxCell id="BRkfBDlrN-Yj64_jAyUv-6" style="shape=partialRectangle;connectable=0;fillColor=none;top=0;left=0;bottom=0;right=0;editable=1;overflow=hidden;whiteSpace=wrap;html=1;" vertex="1" parent="BRkfBDlrN-Yj64_jAyUv-5">
          <mxGeometry width="30" height="30" as="geometry">
            <mxRectangle width="30" height="30" as="alternateBounds" />
          </mxGeometry>
        </mxCell>
        <mxCell id="BRkfBDlrN-Yj64_jAyUv-7" value="Nombre" style="shape=partialRectangle;connectable=0;fillColor=none;top=0;left=0;bottom=0;right=0;align=left;spacingLeft=6;overflow=hidden;whiteSpace=wrap;html=1;" vertex="1" parent="BRkfBDlrN-Yj64_jAyUv-5">
          <mxGeometry x="30" width="150" height="30" as="geometry">
            <mxRectangle width="150" height="30" as="alternateBounds" />
          </mxGeometry>
        </mxCell>
        <mxCell id="BRkfBDlrN-Yj64_jAyUv-8" style="shape=tableRow;horizontal=0;startSize=0;swimlaneHead=0;swimlaneBody=0;fillColor=none;collapsible=0;dropTarget=0;points=[[0,0.5],[1,0.5]];portConstraint=eastwest;top=0;left=0;right=0;bottom=0;" vertex="1" parent="BRkfBDlrN-Yj64_jAyUv-1">
          <mxGeometry y="90" width="180" height="30" as="geometry" />
        </mxCell>
        <mxCell id="BRkfBDlrN-Yj64_jAyUv-9" style="shape=partialRectangle;connectable=0;fillColor=none;top=0;left=0;bottom=0;right=0;editable=1;overflow=hidden;whiteSpace=wrap;html=1;" vertex="1" parent="BRkfBDlrN-Yj64_jAyUv-8">
          <mxGeometry width="30" height="30" as="geometry">
            <mxRectangle width="30" height="30" as="alternateBounds" />
          </mxGeometry>
        </mxCell>
        <mxCell id="BRkfBDlrN-Yj64_jAyUv-10" value="FechaResolucion" style="shape=partialRectangle;connectable=0;fillColor=none;top=0;left=0;bottom=0;right=0;align=left;spacingLeft=6;overflow=hidden;whiteSpace=wrap;html=1;" vertex="1" parent="BRkfBDlrN-Yj64_jAyUv-8">
          <mxGeometry x="30" width="150" height="30" as="geometry">
            <mxRectangle width="150" height="30" as="alternateBounds" />
          </mxGeometry>
        </mxCell>
        <mxCell id="BRkfBDlrN-Yj64_jAyUv-11" value="" style="shape=tableRow;horizontal=0;startSize=0;swimlaneHead=0;swimlaneBody=0;fillColor=none;collapsible=0;dropTarget=0;points=[[0,0.5],[1,0.5]];portConstraint=eastwest;top=0;left=0;right=0;bottom=0;" vertex="1" parent="BRkfBDlrN-Yj64_jAyUv-1">
          <mxGeometry y="120" width="180" height="30" as="geometry" />
        </mxCell>
        <mxCell id="BRkfBDlrN-Yj64_jAyUv-12" value="" style="shape=partialRectangle;connectable=0;fillColor=none;top=0;left=0;bottom=0;right=0;editable=1;overflow=hidden;whiteSpace=wrap;html=1;" vertex="1" parent="BRkfBDlrN-Yj64_jAyUv-11">
          <mxGeometry width="30" height="30" as="geometry">
            <mxRectangle width="30" height="30" as="alternateBounds" />
          </mxGeometry>
        </mxCell>
        <mxCell id="BRkfBDlrN-Yj64_jAyUv-13" value="FechaCierre" style="shape=partialRectangle;connectable=0;fillColor=none;top=0;left=0;bottom=0;right=0;align=left;spacingLeft=6;overflow=hidden;whiteSpace=wrap;html=1;" vertex="1" parent="BRkfBDlrN-Yj64_jAyUv-11">
          <mxGeometry x="30" width="150" height="30" as="geometry">
            <mxRectangle width="150" height="30" as="alternateBounds" />
          </mxGeometry>
        </mxCell>
        <mxCell id="dudAqIc_FjiQx5jUIGZz-24" style="shape=tableRow;horizontal=0;startSize=0;swimlaneHead=0;swimlaneBody=0;fillColor=none;collapsible=0;dropTarget=0;points=[[0,0.5],[1,0.5]];portConstraint=eastwest;top=0;left=0;right=0;bottom=0;" vertex="1" parent="BRkfBDlrN-Yj64_jAyUv-1">
          <mxGeometry y="150" width="180" height="30" as="geometry" />
        </mxCell>
        <mxCell id="dudAqIc_FjiQx5jUIGZz-25" style="shape=partialRectangle;connectable=0;fillColor=none;top=0;left=0;bottom=0;right=0;editable=1;overflow=hidden;whiteSpace=wrap;html=1;" vertex="1" parent="dudAqIc_FjiQx5jUIGZz-24">
          <mxGeometry width="30" height="30" as="geometry">
            <mxRectangle width="30" height="30" as="alternateBounds" />
          </mxGeometry>
        </mxCell>
        <mxCell id="dudAqIc_FjiQx5jUIGZz-26" value="FechaApertura" style="shape=partialRectangle;connectable=0;fillColor=none;top=0;left=0;bottom=0;right=0;align=left;spacingLeft=6;overflow=hidden;whiteSpace=wrap;html=1;" vertex="1" parent="dudAqIc_FjiQx5jUIGZz-24">
          <mxGeometry x="30" width="150" height="30" as="geometry">
            <mxRectangle width="150" height="30" as="alternateBounds" />
          </mxGeometry>
        </mxCell>
        <mxCell id="6qD7W0YYOgOqKxl0jkoc-1" style="shape=tableRow;horizontal=0;startSize=0;swimlaneHead=0;swimlaneBody=0;fillColor=none;collapsible=0;dropTarget=0;points=[[0,0.5],[1,0.5]];portConstraint=eastwest;top=0;left=0;right=0;bottom=0;" vertex="1" parent="BRkfBDlrN-Yj64_jAyUv-1">
          <mxGeometry y="180" width="180" height="30" as="geometry" />
        </mxCell>
        <mxCell id="6qD7W0YYOgOqKxl0jkoc-2" style="shape=partialRectangle;connectable=0;fillColor=none;top=0;left=0;bottom=0;right=0;editable=1;overflow=hidden;whiteSpace=wrap;html=1;" vertex="1" parent="6qD7W0YYOgOqKxl0jkoc-1">
          <mxGeometry width="30" height="30" as="geometry">
            <mxRectangle width="30" height="30" as="alternateBounds" />
          </mxGeometry>
        </mxCell>
        <mxCell id="6qD7W0YYOgOqKxl0jkoc-3" value="TiempoPendiente" style="shape=partialRectangle;connectable=0;fillColor=none;top=0;left=0;bottom=0;right=0;align=left;spacingLeft=6;overflow=hidden;whiteSpace=wrap;html=1;" vertex="1" parent="6qD7W0YYOgOqKxl0jkoc-1">
          <mxGeometry x="30" width="150" height="30" as="geometry">
            <mxRectangle width="150" height="30" as="alternateBounds" />
          </mxGeometry>
        </mxCell>
        <mxCell id="BRkfBDlrN-Yj64_jAyUv-14" style="shape=tableRow;horizontal=0;startSize=0;swimlaneHead=0;swimlaneBody=0;fillColor=none;collapsible=0;dropTarget=0;points=[[0,0.5],[1,0.5]];portConstraint=eastwest;top=0;left=0;right=0;bottom=0;" vertex="1" parent="BRkfBDlrN-Yj64_jAyUv-1">
          <mxGeometry y="210" width="180" height="30" as="geometry" />
        </mxCell>
        <mxCell id="BRkfBDlrN-Yj64_jAyUv-15" value="FK" style="shape=partialRectangle;connectable=0;fillColor=none;top=0;left=0;bottom=0;right=0;editable=1;overflow=hidden;whiteSpace=wrap;html=1;" vertex="1" parent="BRkfBDlrN-Yj64_jAyUv-14">
          <mxGeometry width="30" height="30" as="geometry">
            <mxRectangle width="30" height="30" as="alternateBounds" />
          </mxGeometry>
        </mxCell>
        <mxCell id="BRkfBDlrN-Yj64_jAyUv-16" value="IdTipologia" style="shape=partialRectangle;connectable=0;fillColor=none;top=0;left=0;bottom=0;right=0;align=left;spacingLeft=6;overflow=hidden;whiteSpace=wrap;html=1;" vertex="1" parent="BRkfBDlrN-Yj64_jAyUv-14">
          <mxGeometry x="30" width="150" height="30" as="geometry">
            <mxRectangle width="150" height="30" as="alternateBounds" />
          </mxGeometry>
        </mxCell>
        <mxCell id="BRkfBDlrN-Yj64_jAyUv-17" style="shape=tableRow;horizontal=0;startSize=0;swimlaneHead=0;swimlaneBody=0;fillColor=none;collapsible=0;dropTarget=0;points=[[0,0.5],[1,0.5]];portConstraint=eastwest;top=0;left=0;right=0;bottom=0;" vertex="1" parent="BRkfBDlrN-Yj64_jAyUv-1">
          <mxGeometry y="240" width="180" height="30" as="geometry" />
        </mxCell>
        <mxCell id="BRkfBDlrN-Yj64_jAyUv-18" value="FK" style="shape=partialRectangle;connectable=0;fillColor=none;top=0;left=0;bottom=0;right=0;editable=1;overflow=hidden;whiteSpace=wrap;html=1;" vertex="1" parent="BRkfBDlrN-Yj64_jAyUv-17">
          <mxGeometry width="30" height="30" as="geometry">
            <mxRectangle width="30" height="30" as="alternateBounds" />
          </mxGeometry>
        </mxCell>
        <mxCell id="BRkfBDlrN-Yj64_jAyUv-19" value="IdServicioContratado" style="shape=partialRectangle;connectable=0;fillColor=none;top=0;left=0;bottom=0;right=0;align=left;spacingLeft=6;overflow=hidden;whiteSpace=wrap;html=1;" vertex="1" parent="BRkfBDlrN-Yj64_jAyUv-17">
          <mxGeometry x="30" width="150" height="30" as="geometry">
            <mxRectangle width="150" height="30" as="alternateBounds" />
          </mxGeometry>
        </mxCell>
        <mxCell id="oNCbevfzSIAUKowkY9Ot-1" style="shape=tableRow;horizontal=0;startSize=0;swimlaneHead=0;swimlaneBody=0;fillColor=none;collapsible=0;dropTarget=0;points=[[0,0.5],[1,0.5]];portConstraint=eastwest;top=0;left=0;right=0;bottom=0;" vertex="1" parent="BRkfBDlrN-Yj64_jAyUv-1">
          <mxGeometry y="270" width="180" height="30" as="geometry" />
        </mxCell>
        <mxCell id="oNCbevfzSIAUKowkY9Ot-2" value="FK" style="shape=partialRectangle;connectable=0;fillColor=none;top=0;left=0;bottom=0;right=0;editable=1;overflow=hidden;whiteSpace=wrap;html=1;" vertex="1" parent="oNCbevfzSIAUKowkY9Ot-1">
          <mxGeometry width="30" height="30" as="geometry">
            <mxRectangle width="30" height="30" as="alternateBounds" />
          </mxGeometry>
        </mxCell>
        <mxCell id="oNCbevfzSIAUKowkY9Ot-3" value="IdCliente" style="shape=partialRectangle;connectable=0;fillColor=none;top=0;left=0;bottom=0;right=0;align=left;spacingLeft=6;overflow=hidden;whiteSpace=wrap;html=1;" vertex="1" parent="oNCbevfzSIAUKowkY9Ot-1">
          <mxGeometry x="30" width="150" height="30" as="geometry">
            <mxRectangle width="150" height="30" as="alternateBounds" />
          </mxGeometry>
        </mxCell>
        <mxCell id="TWt_xGnc1AVbP-i8BbtW-17" style="shape=tableRow;horizontal=0;startSize=0;swimlaneHead=0;swimlaneBody=0;fillColor=none;collapsible=0;dropTarget=0;points=[[0,0.5],[1,0.5]];portConstraint=eastwest;top=0;left=0;right=0;bottom=0;" vertex="1" parent="BRkfBDlrN-Yj64_jAyUv-1">
          <mxGeometry y="300" width="180" height="30" as="geometry" />
        </mxCell>
        <mxCell id="TWt_xGnc1AVbP-i8BbtW-18" value="FK" style="shape=partialRectangle;connectable=0;fillColor=none;top=0;left=0;bottom=0;right=0;editable=1;overflow=hidden;whiteSpace=wrap;html=1;" vertex="1" parent="TWt_xGnc1AVbP-i8BbtW-17">
          <mxGeometry width="30" height="30" as="geometry">
            <mxRectangle width="30" height="30" as="alternateBounds" />
          </mxGeometry>
        </mxCell>
        <mxCell id="TWt_xGnc1AVbP-i8BbtW-19" value="IdEstado" style="shape=partialRectangle;connectable=0;fillColor=none;top=0;left=0;bottom=0;right=0;align=left;spacingLeft=6;overflow=hidden;whiteSpace=wrap;html=1;" vertex="1" parent="TWt_xGnc1AVbP-i8BbtW-17">
          <mxGeometry x="30" width="150" height="30" as="geometry">
            <mxRectangle width="150" height="30" as="alternateBounds" />
          </mxGeometry>
        </mxCell>
        <mxCell id="XSz6pEtnNzpgbqtzkQHg-36" style="shape=tableRow;horizontal=0;startSize=0;swimlaneHead=0;swimlaneBody=0;fillColor=none;collapsible=0;dropTarget=0;points=[[0,0.5],[1,0.5]];portConstraint=eastwest;top=0;left=0;right=0;bottom=0;" vertex="1" parent="BRkfBDlrN-Yj64_jAyUv-1">
          <mxGeometry y="330" width="180" height="30" as="geometry" />
        </mxCell>
        <mxCell id="XSz6pEtnNzpgbqtzkQHg-37" value="FK" style="shape=partialRectangle;connectable=0;fillColor=none;top=0;left=0;bottom=0;right=0;editable=1;overflow=hidden;whiteSpace=wrap;html=1;" vertex="1" parent="XSz6pEtnNzpgbqtzkQHg-36">
          <mxGeometry width="30" height="30" as="geometry">
            <mxRectangle width="30" height="30" as="alternateBounds" />
          </mxGeometry>
        </mxCell>
        <mxCell id="XSz6pEtnNzpgbqtzkQHg-38" value="IdEmpleado" style="shape=partialRectangle;connectable=0;fillColor=none;top=0;left=0;bottom=0;right=0;align=left;spacingLeft=6;overflow=hidden;whiteSpace=wrap;html=1;" vertex="1" parent="XSz6pEtnNzpgbqtzkQHg-36">
          <mxGeometry x="30" width="150" height="30" as="geometry">
            <mxRectangle width="150" height="30" as="alternateBounds" />
          </mxGeometry>
        </mxCell>
        <mxCell id="BRkfBDlrN-Yj64_jAyUv-20" value="Tipologia" style="shape=table;startSize=30;container=1;collapsible=1;childLayout=tableLayout;fixedRows=1;rowLines=0;fontStyle=1;align=center;resizeLast=1;html=1;" vertex="1" parent="1">
          <mxGeometry x="-380" y="460" width="180" height="90" as="geometry" />
        </mxCell>
        <mxCell id="BRkfBDlrN-Yj64_jAyUv-21" value="" style="shape=tableRow;horizontal=0;startSize=0;swimlaneHead=0;swimlaneBody=0;fillColor=none;collapsible=0;dropTarget=0;points=[[0,0.5],[1,0.5]];portConstraint=eastwest;top=0;left=0;right=0;bottom=1;" vertex="1" parent="BRkfBDlrN-Yj64_jAyUv-20">
          <mxGeometry y="30" width="180" height="30" as="geometry" />
        </mxCell>
        <mxCell id="BRkfBDlrN-Yj64_jAyUv-22" value="PK" style="shape=partialRectangle;connectable=0;fillColor=none;top=0;left=0;bottom=0;right=0;fontStyle=1;overflow=hidden;whiteSpace=wrap;html=1;" vertex="1" parent="BRkfBDlrN-Yj64_jAyUv-21">
          <mxGeometry width="30" height="30" as="geometry">
            <mxRectangle width="30" height="30" as="alternateBounds" />
          </mxGeometry>
        </mxCell>
        <mxCell id="BRkfBDlrN-Yj64_jAyUv-23" value="Id" style="shape=partialRectangle;connectable=0;fillColor=none;top=0;left=0;bottom=0;right=0;align=left;spacingLeft=6;fontStyle=5;overflow=hidden;whiteSpace=wrap;html=1;" vertex="1" parent="BRkfBDlrN-Yj64_jAyUv-21">
          <mxGeometry x="30" width="150" height="30" as="geometry">
            <mxRectangle width="150" height="30" as="alternateBounds" />
          </mxGeometry>
        </mxCell>
        <mxCell id="BRkfBDlrN-Yj64_jAyUv-24" style="shape=tableRow;horizontal=0;startSize=0;swimlaneHead=0;swimlaneBody=0;fillColor=none;collapsible=0;dropTarget=0;points=[[0,0.5],[1,0.5]];portConstraint=eastwest;top=0;left=0;right=0;bottom=0;" vertex="1" parent="BRkfBDlrN-Yj64_jAyUv-20">
          <mxGeometry y="60" width="180" height="30" as="geometry" />
        </mxCell>
        <mxCell id="BRkfBDlrN-Yj64_jAyUv-25" style="shape=partialRectangle;connectable=0;fillColor=none;top=0;left=0;bottom=0;right=0;editable=1;overflow=hidden;whiteSpace=wrap;html=1;" vertex="1" parent="BRkfBDlrN-Yj64_jAyUv-24">
          <mxGeometry width="30" height="30" as="geometry">
            <mxRectangle width="30" height="30" as="alternateBounds" />
          </mxGeometry>
        </mxCell>
        <mxCell id="BRkfBDlrN-Yj64_jAyUv-26" value="Nombre" style="shape=partialRectangle;connectable=0;fillColor=none;top=0;left=0;bottom=0;right=0;align=left;spacingLeft=6;overflow=hidden;whiteSpace=wrap;html=1;" vertex="1" parent="BRkfBDlrN-Yj64_jAyUv-24">
          <mxGeometry x="30" width="150" height="30" as="geometry">
            <mxRectangle width="150" height="30" as="alternateBounds" />
          </mxGeometry>
        </mxCell>
        <mxCell id="mjjnwxAXhAw-fN4p7tQp-1" value="EstadoTicket" style="shape=table;startSize=30;container=1;collapsible=1;childLayout=tableLayout;fixedRows=1;rowLines=0;fontStyle=1;align=center;resizeLast=1;html=1;" vertex="1" parent="1">
          <mxGeometry x="120" y="750" width="180" height="90" as="geometry" />
        </mxCell>
        <mxCell id="mjjnwxAXhAw-fN4p7tQp-2" value="" style="shape=tableRow;horizontal=0;startSize=0;swimlaneHead=0;swimlaneBody=0;fillColor=none;collapsible=0;dropTarget=0;points=[[0,0.5],[1,0.5]];portConstraint=eastwest;top=0;left=0;right=0;bottom=1;" vertex="1" parent="mjjnwxAXhAw-fN4p7tQp-1">
          <mxGeometry y="30" width="180" height="30" as="geometry" />
        </mxCell>
        <mxCell id="mjjnwxAXhAw-fN4p7tQp-3" value="PK" style="shape=partialRectangle;connectable=0;fillColor=none;top=0;left=0;bottom=0;right=0;fontStyle=1;overflow=hidden;whiteSpace=wrap;html=1;" vertex="1" parent="mjjnwxAXhAw-fN4p7tQp-2">
          <mxGeometry width="30" height="30" as="geometry">
            <mxRectangle width="30" height="30" as="alternateBounds" />
          </mxGeometry>
        </mxCell>
        <mxCell id="mjjnwxAXhAw-fN4p7tQp-4" value="Id" style="shape=partialRectangle;connectable=0;fillColor=none;top=0;left=0;bottom=0;right=0;align=left;spacingLeft=6;fontStyle=5;overflow=hidden;whiteSpace=wrap;html=1;" vertex="1" parent="mjjnwxAXhAw-fN4p7tQp-2">
          <mxGeometry x="30" width="150" height="30" as="geometry">
            <mxRectangle width="150" height="30" as="alternateBounds" />
          </mxGeometry>
        </mxCell>
        <mxCell id="mjjnwxAXhAw-fN4p7tQp-5" style="shape=tableRow;horizontal=0;startSize=0;swimlaneHead=0;swimlaneBody=0;fillColor=none;collapsible=0;dropTarget=0;points=[[0,0.5],[1,0.5]];portConstraint=eastwest;top=0;left=0;right=0;bottom=0;" vertex="1" parent="mjjnwxAXhAw-fN4p7tQp-1">
          <mxGeometry y="60" width="180" height="30" as="geometry" />
        </mxCell>
        <mxCell id="mjjnwxAXhAw-fN4p7tQp-6" style="shape=partialRectangle;connectable=0;fillColor=none;top=0;left=0;bottom=0;right=0;editable=1;overflow=hidden;whiteSpace=wrap;html=1;" vertex="1" parent="mjjnwxAXhAw-fN4p7tQp-5">
          <mxGeometry width="30" height="30" as="geometry">
            <mxRectangle width="30" height="30" as="alternateBounds" />
          </mxGeometry>
        </mxCell>
        <mxCell id="mjjnwxAXhAw-fN4p7tQp-7" value="Nombre" style="shape=partialRectangle;connectable=0;fillColor=none;top=0;left=0;bottom=0;right=0;align=left;spacingLeft=6;overflow=hidden;whiteSpace=wrap;html=1;" vertex="1" parent="mjjnwxAXhAw-fN4p7tQp-5">
          <mxGeometry x="30" width="150" height="30" as="geometry">
            <mxRectangle width="150" height="30" as="alternateBounds" />
          </mxGeometry>
        </mxCell>
        <mxCell id="TWt_xGnc1AVbP-i8BbtW-6" value="" style="edgeStyle=elbowEdgeStyle;fontSize=12;html=1;endArrow=ERzeroToMany;startArrow=ERmandOne;rounded=0;exitX=0;exitY=0.5;exitDx=0;exitDy=0;entryX=1;entryY=0.5;entryDx=0;entryDy=0;" edge="1" parent="1" source="NO-O1Hd0-n7dzhrdDckZ-2" target="58IjdG48viYUPbM44bAO-1">
          <mxGeometry width="100" height="100" relative="1" as="geometry">
            <mxPoint x="-513" y="340" as="sourcePoint" />
            <mxPoint x="-413" y="240" as="targetPoint" />
            <Array as="points">
              <mxPoint x="70" y="180" />
            </Array>
          </mxGeometry>
        </mxCell>
        <mxCell id="TWt_xGnc1AVbP-i8BbtW-10" value="" style="fontSize=12;html=1;endArrow=ERzeroToMany;startArrow=ERmandOne;rounded=0;entryX=0;entryY=0.5;entryDx=0;entryDy=0;exitX=0;exitY=0.5;exitDx=0;exitDy=0;" edge="1" parent="1" source="58IjdG48viYUPbM44bAO-1" target="oNCbevfzSIAUKowkY9Ot-1">
          <mxGeometry width="100" height="100" relative="1" as="geometry">
            <mxPoint x="-190" y="240" as="sourcePoint" />
            <mxPoint x="-187" y="650" as="targetPoint" />
            <Array as="points">
              <mxPoint x="-170" y="255" />
              <mxPoint x="-170" y="565" />
            </Array>
          </mxGeometry>
        </mxCell>
        <mxCell id="TWt_xGnc1AVbP-i8BbtW-11" value="" style="edgeStyle=entityRelationEdgeStyle;fontSize=12;html=1;endArrow=ERzeroToMany;startArrow=ERmandOne;rounded=0;exitX=1;exitY=0.5;exitDx=0;exitDy=0;entryX=0;entryY=0.5;entryDx=0;entryDy=0;" edge="1" parent="1" source="BRkfBDlrN-Yj64_jAyUv-21" target="BRkfBDlrN-Yj64_jAyUv-14">
          <mxGeometry width="100" height="100" relative="1" as="geometry">
            <mxPoint x="130" y="115" as="sourcePoint" />
            <mxPoint x="-220" y="370" as="targetPoint" />
          </mxGeometry>
        </mxCell>
        <mxCell id="TWt_xGnc1AVbP-i8BbtW-8" value="" style="edgeStyle=entityRelationEdgeStyle;fontSize=12;html=1;endArrow=ERzeroToMany;startArrow=ERmandOne;rounded=0;exitX=0;exitY=0.5;exitDx=0;exitDy=0;entryX=1;entryY=0.5;entryDx=0;entryDy=0;" edge="1" parent="1" source="_MCc5wCg-1ufNQ62V-ov-2" target="NO-O1Hd0-n7dzhrdDckZ-8">
          <mxGeometry width="100" height="100" relative="1" as="geometry">
            <mxPoint x="130" y="115" as="sourcePoint" />
            <mxPoint x="50" y="265" as="targetPoint" />
          </mxGeometry>
        </mxCell>
        <mxCell id="TWt_xGnc1AVbP-i8BbtW-9" value="" style="edgeStyle=elbowEdgeStyle;fontSize=12;html=1;endArrow=ERzeroToMany;startArrow=ERmandOne;rounded=0;exitX=0;exitY=0.5;exitDx=0;exitDy=0;entryX=1;entryY=0.5;entryDx=0;entryDy=0;" edge="1" parent="1" source="NO-O1Hd0-n7dzhrdDckZ-2" target="oNCbevfzSIAUKowkY9Ot-1">
          <mxGeometry width="100" height="100" relative="1" as="geometry">
            <mxPoint x="130" y="115" as="sourcePoint" />
            <mxPoint x="50" y="265" as="targetPoint" />
          </mxGeometry>
        </mxCell>
        <mxCell id="mnMI_bNFG9LhSFpRIb6i-1" value="Actividad" style="shape=table;startSize=30;container=1;collapsible=1;childLayout=tableLayout;fixedRows=1;rowLines=0;fontStyle=1;align=center;resizeLast=1;html=1;" vertex="1" parent="1">
          <mxGeometry x="120" y="550" width="180" height="150" as="geometry" />
        </mxCell>
        <mxCell id="mnMI_bNFG9LhSFpRIb6i-2" value="" style="shape=tableRow;horizontal=0;startSize=0;swimlaneHead=0;swimlaneBody=0;fillColor=none;collapsible=0;dropTarget=0;points=[[0,0.5],[1,0.5]];portConstraint=eastwest;top=0;left=0;right=0;bottom=1;" vertex="1" parent="mnMI_bNFG9LhSFpRIb6i-1">
          <mxGeometry y="30" width="180" height="30" as="geometry" />
        </mxCell>
        <mxCell id="mnMI_bNFG9LhSFpRIb6i-3" value="PK" style="shape=partialRectangle;connectable=0;fillColor=none;top=0;left=0;bottom=0;right=0;fontStyle=1;overflow=hidden;whiteSpace=wrap;html=1;" vertex="1" parent="mnMI_bNFG9LhSFpRIb6i-2">
          <mxGeometry width="30" height="30" as="geometry">
            <mxRectangle width="30" height="30" as="alternateBounds" />
          </mxGeometry>
        </mxCell>
        <mxCell id="mnMI_bNFG9LhSFpRIb6i-4" value="Id" style="shape=partialRectangle;connectable=0;fillColor=none;top=0;left=0;bottom=0;right=0;align=left;spacingLeft=6;fontStyle=5;overflow=hidden;whiteSpace=wrap;html=1;" vertex="1" parent="mnMI_bNFG9LhSFpRIb6i-2">
          <mxGeometry x="30" width="150" height="30" as="geometry">
            <mxRectangle width="150" height="30" as="alternateBounds" />
          </mxGeometry>
        </mxCell>
        <mxCell id="TWt_xGnc1AVbP-i8BbtW-13" style="shape=tableRow;horizontal=0;startSize=0;swimlaneHead=0;swimlaneBody=0;fillColor=none;collapsible=0;dropTarget=0;points=[[0,0.5],[1,0.5]];portConstraint=eastwest;top=0;left=0;right=0;bottom=0;" vertex="1" parent="mnMI_bNFG9LhSFpRIb6i-1">
          <mxGeometry y="60" width="180" height="30" as="geometry" />
        </mxCell>
        <mxCell id="TWt_xGnc1AVbP-i8BbtW-14" value="FK" style="shape=partialRectangle;connectable=0;fillColor=none;top=0;left=0;bottom=0;right=0;editable=1;overflow=hidden;whiteSpace=wrap;html=1;" vertex="1" parent="TWt_xGnc1AVbP-i8BbtW-13">
          <mxGeometry width="30" height="30" as="geometry">
            <mxRectangle width="30" height="30" as="alternateBounds" />
          </mxGeometry>
        </mxCell>
        <mxCell id="TWt_xGnc1AVbP-i8BbtW-15" value="IdTicket" style="shape=partialRectangle;connectable=0;fillColor=none;top=0;left=0;bottom=0;right=0;align=left;spacingLeft=6;overflow=hidden;whiteSpace=wrap;html=1;" vertex="1" parent="TWt_xGnc1AVbP-i8BbtW-13">
          <mxGeometry x="30" width="150" height="30" as="geometry">
            <mxRectangle width="150" height="30" as="alternateBounds" />
          </mxGeometry>
        </mxCell>
        <mxCell id="mnMI_bNFG9LhSFpRIb6i-5" style="shape=tableRow;horizontal=0;startSize=0;swimlaneHead=0;swimlaneBody=0;fillColor=none;collapsible=0;dropTarget=0;points=[[0,0.5],[1,0.5]];portConstraint=eastwest;top=0;left=0;right=0;bottom=0;" vertex="1" parent="mnMI_bNFG9LhSFpRIb6i-1">
          <mxGeometry y="90" width="180" height="30" as="geometry" />
        </mxCell>
        <mxCell id="mnMI_bNFG9LhSFpRIb6i-6" style="shape=partialRectangle;connectable=0;fillColor=none;top=0;left=0;bottom=0;right=0;editable=1;overflow=hidden;whiteSpace=wrap;html=1;" vertex="1" parent="mnMI_bNFG9LhSFpRIb6i-5">
          <mxGeometry width="30" height="30" as="geometry">
            <mxRectangle width="30" height="30" as="alternateBounds" />
          </mxGeometry>
        </mxCell>
        <mxCell id="mnMI_bNFG9LhSFpRIb6i-7" value="Descripcion" style="shape=partialRectangle;connectable=0;fillColor=none;top=0;left=0;bottom=0;right=0;align=left;spacingLeft=6;overflow=hidden;whiteSpace=wrap;html=1;" vertex="1" parent="mnMI_bNFG9LhSFpRIb6i-5">
          <mxGeometry x="30" width="150" height="30" as="geometry">
            <mxRectangle width="150" height="30" as="alternateBounds" />
          </mxGeometry>
        </mxCell>
        <mxCell id="EsBYHURo0aDClEqnLhj3-1" style="shape=tableRow;horizontal=0;startSize=0;swimlaneHead=0;swimlaneBody=0;fillColor=none;collapsible=0;dropTarget=0;points=[[0,0.5],[1,0.5]];portConstraint=eastwest;top=0;left=0;right=0;bottom=0;" vertex="1" parent="mnMI_bNFG9LhSFpRIb6i-1">
          <mxGeometry y="120" width="180" height="30" as="geometry" />
        </mxCell>
        <mxCell id="EsBYHURo0aDClEqnLhj3-2" style="shape=partialRectangle;connectable=0;fillColor=none;top=0;left=0;bottom=0;right=0;editable=1;overflow=hidden;whiteSpace=wrap;html=1;" vertex="1" parent="EsBYHURo0aDClEqnLhj3-1">
          <mxGeometry width="30" height="30" as="geometry">
            <mxRectangle width="30" height="30" as="alternateBounds" />
          </mxGeometry>
        </mxCell>
        <mxCell id="EsBYHURo0aDClEqnLhj3-3" value="Fecha" style="shape=partialRectangle;connectable=0;fillColor=none;top=0;left=0;bottom=0;right=0;align=left;spacingLeft=6;overflow=hidden;whiteSpace=wrap;html=1;" vertex="1" parent="EsBYHURo0aDClEqnLhj3-1">
          <mxGeometry x="30" width="150" height="30" as="geometry">
            <mxRectangle width="150" height="30" as="alternateBounds" />
          </mxGeometry>
        </mxCell>
        <mxCell id="TWt_xGnc1AVbP-i8BbtW-20" value="" style="edgeStyle=entityRelationEdgeStyle;fontSize=12;html=1;endArrow=ERzeroToMany;startArrow=ERmandOne;rounded=0;entryX=1;entryY=0.5;entryDx=0;entryDy=0;exitX=0;exitY=0.5;exitDx=0;exitDy=0;" edge="1" parent="1" source="mjjnwxAXhAw-fN4p7tQp-2" target="TWt_xGnc1AVbP-i8BbtW-17">
          <mxGeometry width="100" height="100" relative="1" as="geometry">
            <mxPoint x="120" y="440" as="sourcePoint" />
            <mxPoint x="-130" y="515" as="targetPoint" />
          </mxGeometry>
        </mxCell>
        <mxCell id="TWt_xGnc1AVbP-i8BbtW-7" value="" style="edgeStyle=entityRelationEdgeStyle;fontSize=12;html=1;endArrow=ERzeroToMany;startArrow=ERmandOne;rounded=0;exitX=1;exitY=0.5;exitDx=0;exitDy=0;entryX=0;entryY=0.5;entryDx=0;entryDy=0;" edge="1" parent="1" source="Sq3rAVazc_ZkKV5lc2nH-2" target="58IjdG48viYUPbM44bAO-4">
          <mxGeometry width="100" height="100" relative="1" as="geometry">
            <mxPoint x="110" y="115" as="sourcePoint" />
            <mxPoint x="50" y="265" as="targetPoint" />
          </mxGeometry>
        </mxCell>
        <mxCell id="XSz6pEtnNzpgbqtzkQHg-26" value="Empleado" style="shape=table;startSize=30;container=1;collapsible=1;childLayout=tableLayout;fixedRows=1;rowLines=0;fontStyle=1;align=center;resizeLast=1;html=1;" vertex="1" parent="1">
          <mxGeometry x="-140" y="740" width="180" height="150" as="geometry" />
        </mxCell>
        <mxCell id="XSz6pEtnNzpgbqtzkQHg-27" value="" style="shape=tableRow;horizontal=0;startSize=0;swimlaneHead=0;swimlaneBody=0;fillColor=none;collapsible=0;dropTarget=0;points=[[0,0.5],[1,0.5]];portConstraint=eastwest;top=0;left=0;right=0;bottom=1;" vertex="1" parent="XSz6pEtnNzpgbqtzkQHg-26">
          <mxGeometry y="30" width="180" height="30" as="geometry" />
        </mxCell>
        <mxCell id="XSz6pEtnNzpgbqtzkQHg-28" value="PK" style="shape=partialRectangle;connectable=0;fillColor=none;top=0;left=0;bottom=0;right=0;fontStyle=1;overflow=hidden;whiteSpace=wrap;html=1;" vertex="1" parent="XSz6pEtnNzpgbqtzkQHg-27">
          <mxGeometry width="30" height="30" as="geometry">
            <mxRectangle width="30" height="30" as="alternateBounds" />
          </mxGeometry>
        </mxCell>
        <mxCell id="XSz6pEtnNzpgbqtzkQHg-29" value="Login" style="shape=partialRectangle;connectable=0;fillColor=none;top=0;left=0;bottom=0;right=0;align=left;spacingLeft=6;fontStyle=5;overflow=hidden;whiteSpace=wrap;html=1;" vertex="1" parent="XSz6pEtnNzpgbqtzkQHg-27">
          <mxGeometry x="30" width="150" height="30" as="geometry">
            <mxRectangle width="150" height="30" as="alternateBounds" />
          </mxGeometry>
        </mxCell>
        <mxCell id="XSz6pEtnNzpgbqtzkQHg-30" style="shape=tableRow;horizontal=0;startSize=0;swimlaneHead=0;swimlaneBody=0;fillColor=none;collapsible=0;dropTarget=0;points=[[0,0.5],[1,0.5]];portConstraint=eastwest;top=0;left=0;right=0;bottom=0;" vertex="1" parent="XSz6pEtnNzpgbqtzkQHg-26">
          <mxGeometry y="60" width="180" height="30" as="geometry" />
        </mxCell>
        <mxCell id="XSz6pEtnNzpgbqtzkQHg-31" style="shape=partialRectangle;connectable=0;fillColor=none;top=0;left=0;bottom=0;right=0;editable=1;overflow=hidden;whiteSpace=wrap;html=1;" vertex="1" parent="XSz6pEtnNzpgbqtzkQHg-30">
          <mxGeometry width="30" height="30" as="geometry">
            <mxRectangle width="30" height="30" as="alternateBounds" />
          </mxGeometry>
        </mxCell>
        <mxCell id="XSz6pEtnNzpgbqtzkQHg-32" value="Nombre" style="shape=partialRectangle;connectable=0;fillColor=none;top=0;left=0;bottom=0;right=0;align=left;spacingLeft=6;overflow=hidden;whiteSpace=wrap;html=1;" vertex="1" parent="XSz6pEtnNzpgbqtzkQHg-30">
          <mxGeometry x="30" width="150" height="30" as="geometry">
            <mxRectangle width="150" height="30" as="alternateBounds" />
          </mxGeometry>
        </mxCell>
        <mxCell id="XSz6pEtnNzpgbqtzkQHg-33" style="shape=tableRow;horizontal=0;startSize=0;swimlaneHead=0;swimlaneBody=0;fillColor=none;collapsible=0;dropTarget=0;points=[[0,0.5],[1,0.5]];portConstraint=eastwest;top=0;left=0;right=0;bottom=0;" vertex="1" parent="XSz6pEtnNzpgbqtzkQHg-26">
          <mxGeometry y="90" width="180" height="30" as="geometry" />
        </mxCell>
        <mxCell id="XSz6pEtnNzpgbqtzkQHg-34" value="&lt;br&gt;" style="shape=partialRectangle;connectable=0;fillColor=none;top=0;left=0;bottom=0;right=0;editable=1;overflow=hidden;whiteSpace=wrap;html=1;" vertex="1" parent="XSz6pEtnNzpgbqtzkQHg-33">
          <mxGeometry width="30" height="30" as="geometry">
            <mxRectangle width="30" height="30" as="alternateBounds" />
          </mxGeometry>
        </mxCell>
        <mxCell id="XSz6pEtnNzpgbqtzkQHg-35" value="Apellido" style="shape=partialRectangle;connectable=0;fillColor=none;top=0;left=0;bottom=0;right=0;align=left;spacingLeft=6;overflow=hidden;whiteSpace=wrap;html=1;" vertex="1" parent="XSz6pEtnNzpgbqtzkQHg-33">
          <mxGeometry x="30" width="150" height="30" as="geometry">
            <mxRectangle width="150" height="30" as="alternateBounds" />
          </mxGeometry>
        </mxCell>
        <mxCell id="QIJiptRtoUU4JfqliLn2-4" style="shape=tableRow;horizontal=0;startSize=0;swimlaneHead=0;swimlaneBody=0;fillColor=none;collapsible=0;dropTarget=0;points=[[0,0.5],[1,0.5]];portConstraint=eastwest;top=0;left=0;right=0;bottom=0;" vertex="1" parent="XSz6pEtnNzpgbqtzkQHg-26">
          <mxGeometry y="120" width="180" height="30" as="geometry" />
        </mxCell>
        <mxCell id="QIJiptRtoUU4JfqliLn2-5" style="shape=partialRectangle;connectable=0;fillColor=none;top=0;left=0;bottom=0;right=0;editable=1;overflow=hidden;whiteSpace=wrap;html=1;" vertex="1" parent="QIJiptRtoUU4JfqliLn2-4">
          <mxGeometry width="30" height="30" as="geometry">
            <mxRectangle width="30" height="30" as="alternateBounds" />
          </mxGeometry>
        </mxCell>
        <mxCell id="QIJiptRtoUU4JfqliLn2-6" value="IdEstado" style="shape=partialRectangle;connectable=0;fillColor=none;top=0;left=0;bottom=0;right=0;align=left;spacingLeft=6;overflow=hidden;whiteSpace=wrap;html=1;" vertex="1" parent="QIJiptRtoUU4JfqliLn2-4">
          <mxGeometry x="30" width="150" height="30" as="geometry">
            <mxRectangle width="150" height="30" as="alternateBounds" />
          </mxGeometry>
        </mxCell>
        <mxCell id="Vw6jg1CFHnd4wLkRrCVd-1" value="" style="edgeStyle=entityRelationEdgeStyle;fontSize=12;html=1;endArrow=ERzeroToMany;startArrow=ERmandOne;rounded=0;entryX=1;entryY=0.5;entryDx=0;entryDy=0;exitX=1;exitY=0.5;exitDx=0;exitDy=0;" edge="1" parent="1" source="XSz6pEtnNzpgbqtzkQHg-27" target="XSz6pEtnNzpgbqtzkQHg-36">
          <mxGeometry width="100" height="100" relative="1" as="geometry">
            <mxPoint x="160" y="395" as="sourcePoint" />
            <mxPoint x="50" y="605" as="targetPoint" />
          </mxGeometry>
        </mxCell>
        <mxCell id="TWt_xGnc1AVbP-i8BbtW-16" value="" style="edgeStyle=entityRelationEdgeStyle;fontSize=12;html=1;endArrow=ERzeroToMany;startArrow=ERmandOne;rounded=0;exitX=1;exitY=0.5;exitDx=0;exitDy=0;entryX=0;entryY=0.5;entryDx=0;entryDy=0;" edge="1" parent="1" source="BRkfBDlrN-Yj64_jAyUv-2" target="TWt_xGnc1AVbP-i8BbtW-13">
          <mxGeometry width="100" height="100" relative="1" as="geometry">
            <mxPoint x="-240" y="395" as="sourcePoint" />
            <mxPoint x="100" y="620" as="targetPoint" />
          </mxGeometry>
        </mxCell>
        <mxCell id="rzK6djVtWu0f3LSHE2g3-1" value="SLA" style="shape=table;startSize=30;container=1;collapsible=1;childLayout=tableLayout;fixedRows=1;rowLines=0;fontStyle=1;align=center;resizeLast=1;html=1;" vertex="1" parent="1">
          <mxGeometry x="-620" y="460" width="180" height="120" as="geometry" />
        </mxCell>
        <mxCell id="rzK6djVtWu0f3LSHE2g3-2" value="" style="shape=tableRow;horizontal=0;startSize=0;swimlaneHead=0;swimlaneBody=0;fillColor=none;collapsible=0;dropTarget=0;points=[[0,0.5],[1,0.5]];portConstraint=eastwest;top=0;left=0;right=0;bottom=1;" vertex="1" parent="rzK6djVtWu0f3LSHE2g3-1">
          <mxGeometry y="30" width="180" height="30" as="geometry" />
        </mxCell>
        <mxCell id="rzK6djVtWu0f3LSHE2g3-3" value="PK, FK" style="shape=partialRectangle;connectable=0;fillColor=none;top=0;left=0;bottom=0;right=0;fontStyle=1;overflow=hidden;whiteSpace=wrap;html=1;" vertex="1" parent="rzK6djVtWu0f3LSHE2g3-2">
          <mxGeometry width="30" height="30" as="geometry">
            <mxRectangle width="30" height="30" as="alternateBounds" />
          </mxGeometry>
        </mxCell>
        <mxCell id="rzK6djVtWu0f3LSHE2g3-4" value="IdTipologia" style="shape=partialRectangle;connectable=0;fillColor=none;top=0;left=0;bottom=0;right=0;align=left;spacingLeft=6;fontStyle=5;overflow=hidden;whiteSpace=wrap;html=1;" vertex="1" parent="rzK6djVtWu0f3LSHE2g3-2">
          <mxGeometry x="30" width="150" height="30" as="geometry">
            <mxRectangle width="150" height="30" as="alternateBounds" />
          </mxGeometry>
        </mxCell>
        <mxCell id="dudAqIc_FjiQx5jUIGZz-1" style="shape=tableRow;horizontal=0;startSize=0;swimlaneHead=0;swimlaneBody=0;fillColor=none;collapsible=0;dropTarget=0;points=[[0,0.5],[1,0.5]];portConstraint=eastwest;top=0;left=0;right=0;bottom=1;" vertex="1" parent="rzK6djVtWu0f3LSHE2g3-1">
          <mxGeometry y="60" width="180" height="30" as="geometry" />
        </mxCell>
        <mxCell id="dudAqIc_FjiQx5jUIGZz-2" value="PK, FK" style="shape=partialRectangle;connectable=0;fillColor=none;top=0;left=0;bottom=0;right=0;fontStyle=1;overflow=hidden;whiteSpace=wrap;html=1;" vertex="1" parent="dudAqIc_FjiQx5jUIGZz-1">
          <mxGeometry width="30" height="30" as="geometry">
            <mxRectangle width="30" height="30" as="alternateBounds" />
          </mxGeometry>
        </mxCell>
        <mxCell id="dudAqIc_FjiQx5jUIGZz-3" value="IdServicio" style="shape=partialRectangle;connectable=0;fillColor=none;top=0;left=0;bottom=0;right=0;align=left;spacingLeft=6;fontStyle=5;overflow=hidden;whiteSpace=wrap;html=1;" vertex="1" parent="dudAqIc_FjiQx5jUIGZz-1">
          <mxGeometry x="30" width="150" height="30" as="geometry">
            <mxRectangle width="150" height="30" as="alternateBounds" />
          </mxGeometry>
        </mxCell>
        <mxCell id="rzK6djVtWu0f3LSHE2g3-5" style="shape=tableRow;horizontal=0;startSize=0;swimlaneHead=0;swimlaneBody=0;fillColor=none;collapsible=0;dropTarget=0;points=[[0,0.5],[1,0.5]];portConstraint=eastwest;top=0;left=0;right=0;bottom=0;" vertex="1" parent="rzK6djVtWu0f3LSHE2g3-1">
          <mxGeometry y="90" width="180" height="30" as="geometry" />
        </mxCell>
        <mxCell id="rzK6djVtWu0f3LSHE2g3-6" style="shape=partialRectangle;connectable=0;fillColor=none;top=0;left=0;bottom=0;right=0;editable=1;overflow=hidden;whiteSpace=wrap;html=1;" vertex="1" parent="rzK6djVtWu0f3LSHE2g3-5">
          <mxGeometry width="30" height="30" as="geometry">
            <mxRectangle width="30" height="30" as="alternateBounds" />
          </mxGeometry>
        </mxCell>
        <mxCell id="rzK6djVtWu0f3LSHE2g3-7" value="tiempoMaximo" style="shape=partialRectangle;connectable=0;fillColor=none;top=0;left=0;bottom=0;right=0;align=left;spacingLeft=6;overflow=hidden;whiteSpace=wrap;html=1;" vertex="1" parent="rzK6djVtWu0f3LSHE2g3-5">
          <mxGeometry x="30" width="150" height="30" as="geometry">
            <mxRectangle width="150" height="30" as="alternateBounds" />
          </mxGeometry>
        </mxCell>
        <mxCell id="dudAqIc_FjiQx5jUIGZz-4" value="" style="edgeStyle=entityRelationEdgeStyle;fontSize=12;html=1;endArrow=ERzeroToMany;startArrow=ERmandOne;rounded=0;entryX=1;entryY=0.5;entryDx=0;entryDy=0;exitX=0;exitY=0.5;exitDx=0;exitDy=0;" edge="1" parent="1" source="BRkfBDlrN-Yj64_jAyUv-21" target="rzK6djVtWu0f3LSHE2g3-2">
          <mxGeometry width="100" height="100" relative="1" as="geometry">
            <mxPoint x="-400" y="640" as="sourcePoint" />
            <mxPoint x="-480" y="640" as="targetPoint" />
            <Array as="points">
              <mxPoint x="-530" y="630" />
              <mxPoint x="-490" y="610" />
            </Array>
          </mxGeometry>
        </mxCell>
        <mxCell id="dudAqIc_FjiQx5jUIGZz-5" value="" style="edgeStyle=entityRelationEdgeStyle;fontSize=12;html=1;endArrow=ERzeroToMany;startArrow=ERmandOne;rounded=0;entryX=1;entryY=0.5;entryDx=0;entryDy=0;exitX=0;exitY=0.5;exitDx=0;exitDy=0;" edge="1" parent="1" source="Sq3rAVazc_ZkKV5lc2nH-2" target="dudAqIc_FjiQx5jUIGZz-1">
          <mxGeometry width="100" height="100" relative="1" as="geometry">
            <mxPoint x="-340" y="610" as="sourcePoint" />
            <mxPoint x="-410" y="610" as="targetPoint" />
            <Array as="points">
              <mxPoint x="-490" y="735" />
              <mxPoint x="-450" y="715" />
            </Array>
          </mxGeometry>
        </mxCell>
        <mxCell id="dudAqIc_FjiQx5jUIGZz-6" value="EstadoEmpleado" style="shape=table;startSize=30;container=1;collapsible=1;childLayout=tableLayout;fixedRows=1;rowLines=0;fontStyle=1;align=center;resizeLast=1;html=1;" vertex="1" parent="1">
          <mxGeometry x="120" y="870" width="180" height="90" as="geometry" />
        </mxCell>
        <mxCell id="dudAqIc_FjiQx5jUIGZz-7" value="" style="shape=tableRow;horizontal=0;startSize=0;swimlaneHead=0;swimlaneBody=0;fillColor=none;collapsible=0;dropTarget=0;points=[[0,0.5],[1,0.5]];portConstraint=eastwest;top=0;left=0;right=0;bottom=1;" vertex="1" parent="dudAqIc_FjiQx5jUIGZz-6">
          <mxGeometry y="30" width="180" height="30" as="geometry" />
        </mxCell>
        <mxCell id="dudAqIc_FjiQx5jUIGZz-8" value="PK" style="shape=partialRectangle;connectable=0;fillColor=none;top=0;left=0;bottom=0;right=0;fontStyle=1;overflow=hidden;whiteSpace=wrap;html=1;" vertex="1" parent="dudAqIc_FjiQx5jUIGZz-7">
          <mxGeometry width="30" height="30" as="geometry">
            <mxRectangle width="30" height="30" as="alternateBounds" />
          </mxGeometry>
        </mxCell>
        <mxCell id="dudAqIc_FjiQx5jUIGZz-9" value="Id" style="shape=partialRectangle;connectable=0;fillColor=none;top=0;left=0;bottom=0;right=0;align=left;spacingLeft=6;fontStyle=5;overflow=hidden;whiteSpace=wrap;html=1;" vertex="1" parent="dudAqIc_FjiQx5jUIGZz-7">
          <mxGeometry x="30" width="150" height="30" as="geometry">
            <mxRectangle width="150" height="30" as="alternateBounds" />
          </mxGeometry>
        </mxCell>
        <mxCell id="dudAqIc_FjiQx5jUIGZz-10" style="shape=tableRow;horizontal=0;startSize=0;swimlaneHead=0;swimlaneBody=0;fillColor=none;collapsible=0;dropTarget=0;points=[[0,0.5],[1,0.5]];portConstraint=eastwest;top=0;left=0;right=0;bottom=0;" vertex="1" parent="dudAqIc_FjiQx5jUIGZz-6">
          <mxGeometry y="60" width="180" height="30" as="geometry" />
        </mxCell>
        <mxCell id="dudAqIc_FjiQx5jUIGZz-11" style="shape=partialRectangle;connectable=0;fillColor=none;top=0;left=0;bottom=0;right=0;editable=1;overflow=hidden;whiteSpace=wrap;html=1;" vertex="1" parent="dudAqIc_FjiQx5jUIGZz-10">
          <mxGeometry width="30" height="30" as="geometry">
            <mxRectangle width="30" height="30" as="alternateBounds" />
          </mxGeometry>
        </mxCell>
        <mxCell id="dudAqIc_FjiQx5jUIGZz-12" value="Nombre" style="shape=partialRectangle;connectable=0;fillColor=none;top=0;left=0;bottom=0;right=0;align=left;spacingLeft=6;overflow=hidden;whiteSpace=wrap;html=1;" vertex="1" parent="dudAqIc_FjiQx5jUIGZz-10">
          <mxGeometry x="30" width="150" height="30" as="geometry">
            <mxRectangle width="150" height="30" as="alternateBounds" />
          </mxGeometry>
        </mxCell>
        <mxCell id="dudAqIc_FjiQx5jUIGZz-23" value="" style="edgeStyle=entityRelationEdgeStyle;fontSize=12;html=1;endArrow=ERzeroToMany;startArrow=ERmandOne;rounded=0;entryX=1;entryY=0.5;entryDx=0;entryDy=0;exitX=0;exitY=0.5;exitDx=0;exitDy=0;" edge="1" parent="1" source="dudAqIc_FjiQx5jUIGZz-7" target="QIJiptRtoUU4JfqliLn2-4">
          <mxGeometry width="100" height="100" relative="1" as="geometry">
            <mxPoint x="120" y="910" as="sourcePoint" />
            <mxPoint x="120" y="820" as="targetPoint" />
          </mxGeometry>
        </mxCell>
        <mxCell id="i3kEQ_GoQqLZ527SzAl1-1" value="Notificaciones" style="shape=table;startSize=30;container=1;collapsible=1;childLayout=tableLayout;fixedRows=1;rowLines=0;fontStyle=1;align=center;resizeLast=1;html=1;" vertex="1" parent="1">
          <mxGeometry x="360" y="230" width="180" height="210" as="geometry" />
        </mxCell>
        <mxCell id="i3kEQ_GoQqLZ527SzAl1-2" value="" style="shape=tableRow;horizontal=0;startSize=0;swimlaneHead=0;swimlaneBody=0;fillColor=none;collapsible=0;dropTarget=0;points=[[0,0.5],[1,0.5]];portConstraint=eastwest;top=0;left=0;right=0;bottom=1;" vertex="1" parent="i3kEQ_GoQqLZ527SzAl1-1">
          <mxGeometry y="30" width="180" height="30" as="geometry" />
        </mxCell>
        <mxCell id="i3kEQ_GoQqLZ527SzAl1-3" value="PK" style="shape=partialRectangle;connectable=0;fillColor=none;top=0;left=0;bottom=0;right=0;fontStyle=1;overflow=hidden;whiteSpace=wrap;html=1;" vertex="1" parent="i3kEQ_GoQqLZ527SzAl1-2">
          <mxGeometry width="30" height="30" as="geometry">
            <mxRectangle width="30" height="30" as="alternateBounds" />
          </mxGeometry>
        </mxCell>
        <mxCell id="i3kEQ_GoQqLZ527SzAl1-4" value="Id" style="shape=partialRectangle;connectable=0;fillColor=none;top=0;left=0;bottom=0;right=0;align=left;spacingLeft=6;fontStyle=5;overflow=hidden;whiteSpace=wrap;html=1;" vertex="1" parent="i3kEQ_GoQqLZ527SzAl1-2">
          <mxGeometry x="30" width="150" height="30" as="geometry">
            <mxRectangle width="150" height="30" as="alternateBounds" />
          </mxGeometry>
        </mxCell>
        <mxCell id="i3kEQ_GoQqLZ527SzAl1-5" style="shape=tableRow;horizontal=0;startSize=0;swimlaneHead=0;swimlaneBody=0;fillColor=none;collapsible=0;dropTarget=0;points=[[0,0.5],[1,0.5]];portConstraint=eastwest;top=0;left=0;right=0;bottom=0;" vertex="1" parent="i3kEQ_GoQqLZ527SzAl1-1">
          <mxGeometry y="60" width="180" height="30" as="geometry" />
        </mxCell>
        <mxCell id="i3kEQ_GoQqLZ527SzAl1-6" value="FK" style="shape=partialRectangle;connectable=0;fillColor=none;top=0;left=0;bottom=0;right=0;editable=1;overflow=hidden;whiteSpace=wrap;html=1;" vertex="1" parent="i3kEQ_GoQqLZ527SzAl1-5">
          <mxGeometry width="30" height="30" as="geometry">
            <mxRectangle width="30" height="30" as="alternateBounds" />
          </mxGeometry>
        </mxCell>
        <mxCell id="i3kEQ_GoQqLZ527SzAl1-7" value="IdCliente" style="shape=partialRectangle;connectable=0;fillColor=none;top=0;left=0;bottom=0;right=0;align=left;spacingLeft=6;overflow=hidden;whiteSpace=wrap;html=1;" vertex="1" parent="i3kEQ_GoQqLZ527SzAl1-5">
          <mxGeometry x="30" width="150" height="30" as="geometry">
            <mxRectangle width="150" height="30" as="alternateBounds" />
          </mxGeometry>
        </mxCell>
        <mxCell id="i3kEQ_GoQqLZ527SzAl1-8" style="shape=tableRow;horizontal=0;startSize=0;swimlaneHead=0;swimlaneBody=0;fillColor=none;collapsible=0;dropTarget=0;points=[[0,0.5],[1,0.5]];portConstraint=eastwest;top=0;left=0;right=0;bottom=0;" vertex="1" parent="i3kEQ_GoQqLZ527SzAl1-1">
          <mxGeometry y="90" width="180" height="30" as="geometry" />
        </mxCell>
        <mxCell id="i3kEQ_GoQqLZ527SzAl1-9" value="FK" style="shape=partialRectangle;connectable=0;fillColor=none;top=0;left=0;bottom=0;right=0;editable=1;overflow=hidden;whiteSpace=wrap;html=1;" vertex="1" parent="i3kEQ_GoQqLZ527SzAl1-8">
          <mxGeometry width="30" height="30" as="geometry">
            <mxRectangle width="30" height="30" as="alternateBounds" />
          </mxGeometry>
        </mxCell>
        <mxCell id="i3kEQ_GoQqLZ527SzAl1-10" value="IdTicket" style="shape=partialRectangle;connectable=0;fillColor=none;top=0;left=0;bottom=0;right=0;align=left;spacingLeft=6;overflow=hidden;whiteSpace=wrap;html=1;" vertex="1" parent="i3kEQ_GoQqLZ527SzAl1-8">
          <mxGeometry x="30" width="150" height="30" as="geometry">
            <mxRectangle width="150" height="30" as="alternateBounds" />
          </mxGeometry>
        </mxCell>
        <mxCell id="i3kEQ_GoQqLZ527SzAl1-11" style="shape=tableRow;horizontal=0;startSize=0;swimlaneHead=0;swimlaneBody=0;fillColor=none;collapsible=0;dropTarget=0;points=[[0,0.5],[1,0.5]];portConstraint=eastwest;top=0;left=0;right=0;bottom=0;" vertex="1" parent="i3kEQ_GoQqLZ527SzAl1-1">
          <mxGeometry y="120" width="180" height="30" as="geometry" />
        </mxCell>
        <mxCell id="i3kEQ_GoQqLZ527SzAl1-12" style="shape=partialRectangle;connectable=0;fillColor=none;top=0;left=0;bottom=0;right=0;editable=1;overflow=hidden;whiteSpace=wrap;html=1;" vertex="1" parent="i3kEQ_GoQqLZ527SzAl1-11">
          <mxGeometry width="30" height="30" as="geometry">
            <mxRectangle width="30" height="30" as="alternateBounds" />
          </mxGeometry>
        </mxCell>
        <mxCell id="i3kEQ_GoQqLZ527SzAl1-13" value="CuerpoMail" style="shape=partialRectangle;connectable=0;fillColor=none;top=0;left=0;bottom=0;right=0;align=left;spacingLeft=6;overflow=hidden;whiteSpace=wrap;html=1;" vertex="1" parent="i3kEQ_GoQqLZ527SzAl1-11">
          <mxGeometry x="30" width="150" height="30" as="geometry">
            <mxRectangle width="150" height="30" as="alternateBounds" />
          </mxGeometry>
        </mxCell>
        <mxCell id="i3kEQ_GoQqLZ527SzAl1-14" style="shape=tableRow;horizontal=0;startSize=0;swimlaneHead=0;swimlaneBody=0;fillColor=none;collapsible=0;dropTarget=0;points=[[0,0.5],[1,0.5]];portConstraint=eastwest;top=0;left=0;right=0;bottom=0;" vertex="1" parent="i3kEQ_GoQqLZ527SzAl1-1">
          <mxGeometry y="150" width="180" height="30" as="geometry" />
        </mxCell>
        <mxCell id="i3kEQ_GoQqLZ527SzAl1-15" style="shape=partialRectangle;connectable=0;fillColor=none;top=0;left=0;bottom=0;right=0;editable=1;overflow=hidden;whiteSpace=wrap;html=1;" vertex="1" parent="i3kEQ_GoQqLZ527SzAl1-14">
          <mxGeometry width="30" height="30" as="geometry">
            <mxRectangle width="30" height="30" as="alternateBounds" />
          </mxGeometry>
        </mxCell>
        <mxCell id="i3kEQ_GoQqLZ527SzAl1-16" value="FechaEnvio" style="shape=partialRectangle;connectable=0;fillColor=none;top=0;left=0;bottom=0;right=0;align=left;spacingLeft=6;overflow=hidden;whiteSpace=wrap;html=1;" vertex="1" parent="i3kEQ_GoQqLZ527SzAl1-14">
          <mxGeometry x="30" width="150" height="30" as="geometry">
            <mxRectangle width="150" height="30" as="alternateBounds" />
          </mxGeometry>
        </mxCell>
        <mxCell id="OcB4yLOOqjEvBWQLQ5y--1" style="shape=tableRow;horizontal=0;startSize=0;swimlaneHead=0;swimlaneBody=0;fillColor=none;collapsible=0;dropTarget=0;points=[[0,0.5],[1,0.5]];portConstraint=eastwest;top=0;left=0;right=0;bottom=0;" vertex="1" parent="i3kEQ_GoQqLZ527SzAl1-1">
          <mxGeometry y="180" width="180" height="30" as="geometry" />
        </mxCell>
        <mxCell id="OcB4yLOOqjEvBWQLQ5y--2" value="FK" style="shape=partialRectangle;connectable=0;fillColor=none;top=0;left=0;bottom=0;right=0;editable=1;overflow=hidden;whiteSpace=wrap;html=1;" vertex="1" parent="OcB4yLOOqjEvBWQLQ5y--1">
          <mxGeometry width="30" height="30" as="geometry">
            <mxRectangle width="30" height="30" as="alternateBounds" />
          </mxGeometry>
        </mxCell>
        <mxCell id="OcB4yLOOqjEvBWQLQ5y--3" value="IdHistorialEstado" style="shape=partialRectangle;connectable=0;fillColor=none;top=0;left=0;bottom=0;right=0;align=left;spacingLeft=6;overflow=hidden;whiteSpace=wrap;html=1;" vertex="1" parent="OcB4yLOOqjEvBWQLQ5y--1">
          <mxGeometry x="30" width="150" height="30" as="geometry">
            <mxRectangle width="150" height="30" as="alternateBounds" />
          </mxGeometry>
        </mxCell>
        <mxCell id="i3kEQ_GoQqLZ527SzAl1-20" value="" style="edgeStyle=entityRelationEdgeStyle;fontSize=12;html=1;endArrow=ERzeroToMany;startArrow=ERmandOne;rounded=0;exitX=1;exitY=0.5;exitDx=0;exitDy=0;entryX=0;entryY=0.5;entryDx=0;entryDy=0;" edge="1" parent="1" source="NO-O1Hd0-n7dzhrdDckZ-2" target="i3kEQ_GoQqLZ527SzAl1-5">
          <mxGeometry width="100" height="100" relative="1" as="geometry">
            <mxPoint x="370" y="175" as="sourcePoint" />
            <mxPoint x="310" y="260" as="targetPoint" />
          </mxGeometry>
        </mxCell>
        <mxCell id="i3kEQ_GoQqLZ527SzAl1-22" value="" style="edgeStyle=entityRelationEdgeStyle;fontSize=12;html=1;endArrow=ERzeroToMany;startArrow=ERmandOne;rounded=0;exitX=1;exitY=0.5;exitDx=0;exitDy=0;entryX=0;entryY=0.5;entryDx=0;entryDy=0;" edge="1" parent="1" source="BRkfBDlrN-Yj64_jAyUv-2" target="i3kEQ_GoQqLZ527SzAl1-8">
          <mxGeometry width="100" height="100" relative="1" as="geometry">
            <mxPoint x="310" y="110" as="sourcePoint" />
            <mxPoint x="370" y="355" as="targetPoint" />
          </mxGeometry>
        </mxCell>
        <mxCell id="VLi1H5qzZdntmuQjMVy9-1" value="HistorialEstados" style="shape=table;startSize=30;container=1;collapsible=1;childLayout=tableLayout;fixedRows=1;rowLines=0;fontStyle=1;align=center;resizeLast=1;html=1;" vertex="1" parent="1">
          <mxGeometry x="360" y="460" width="180" height="150" as="geometry" />
        </mxCell>
        <mxCell id="VLi1H5qzZdntmuQjMVy9-2" value="" style="shape=tableRow;horizontal=0;startSize=0;swimlaneHead=0;swimlaneBody=0;fillColor=none;collapsible=0;dropTarget=0;points=[[0,0.5],[1,0.5]];portConstraint=eastwest;top=0;left=0;right=0;bottom=1;" vertex="1" parent="VLi1H5qzZdntmuQjMVy9-1">
          <mxGeometry y="30" width="180" height="30" as="geometry" />
        </mxCell>
        <mxCell id="VLi1H5qzZdntmuQjMVy9-3" value="PK" style="shape=partialRectangle;connectable=0;fillColor=none;top=0;left=0;bottom=0;right=0;fontStyle=1;overflow=hidden;whiteSpace=wrap;html=1;" vertex="1" parent="VLi1H5qzZdntmuQjMVy9-2">
          <mxGeometry width="30" height="30" as="geometry">
            <mxRectangle width="30" height="30" as="alternateBounds" />
          </mxGeometry>
        </mxCell>
        <mxCell id="VLi1H5qzZdntmuQjMVy9-4" value="Id" style="shape=partialRectangle;connectable=0;fillColor=none;top=0;left=0;bottom=0;right=0;align=left;spacingLeft=6;fontStyle=5;overflow=hidden;whiteSpace=wrap;html=1;" vertex="1" parent="VLi1H5qzZdntmuQjMVy9-2">
          <mxGeometry x="30" width="150" height="30" as="geometry">
            <mxRectangle width="150" height="30" as="alternateBounds" />
          </mxGeometry>
        </mxCell>
        <mxCell id="VLi1H5qzZdntmuQjMVy9-5" style="shape=tableRow;horizontal=0;startSize=0;swimlaneHead=0;swimlaneBody=0;fillColor=none;collapsible=0;dropTarget=0;points=[[0,0.5],[1,0.5]];portConstraint=eastwest;top=0;left=0;right=0;bottom=0;" vertex="1" parent="VLi1H5qzZdntmuQjMVy9-1">
          <mxGeometry y="60" width="180" height="30" as="geometry" />
        </mxCell>
        <mxCell id="VLi1H5qzZdntmuQjMVy9-6" value="FK" style="shape=partialRectangle;connectable=0;fillColor=none;top=0;left=0;bottom=0;right=0;editable=1;overflow=hidden;whiteSpace=wrap;html=1;" vertex="1" parent="VLi1H5qzZdntmuQjMVy9-5">
          <mxGeometry width="30" height="30" as="geometry">
            <mxRectangle width="30" height="30" as="alternateBounds" />
          </mxGeometry>
        </mxCell>
        <mxCell id="VLi1H5qzZdntmuQjMVy9-7" value="ViejoEstado" style="shape=partialRectangle;connectable=0;fillColor=none;top=0;left=0;bottom=0;right=0;align=left;spacingLeft=6;overflow=hidden;whiteSpace=wrap;html=1;" vertex="1" parent="VLi1H5qzZdntmuQjMVy9-5">
          <mxGeometry x="30" width="150" height="30" as="geometry">
            <mxRectangle width="150" height="30" as="alternateBounds" />
          </mxGeometry>
        </mxCell>
        <mxCell id="VLi1H5qzZdntmuQjMVy9-8" style="shape=tableRow;horizontal=0;startSize=0;swimlaneHead=0;swimlaneBody=0;fillColor=none;collapsible=0;dropTarget=0;points=[[0,0.5],[1,0.5]];portConstraint=eastwest;top=0;left=0;right=0;bottom=0;" vertex="1" parent="VLi1H5qzZdntmuQjMVy9-1">
          <mxGeometry y="90" width="180" height="30" as="geometry" />
        </mxCell>
        <mxCell id="VLi1H5qzZdntmuQjMVy9-9" value="FK" style="shape=partialRectangle;connectable=0;fillColor=none;top=0;left=0;bottom=0;right=0;editable=1;overflow=hidden;whiteSpace=wrap;html=1;" vertex="1" parent="VLi1H5qzZdntmuQjMVy9-8">
          <mxGeometry width="30" height="30" as="geometry">
            <mxRectangle width="30" height="30" as="alternateBounds" />
          </mxGeometry>
        </mxCell>
        <mxCell id="VLi1H5qzZdntmuQjMVy9-10" value="NuevoEstado" style="shape=partialRectangle;connectable=0;fillColor=none;top=0;left=0;bottom=0;right=0;align=left;spacingLeft=6;overflow=hidden;whiteSpace=wrap;html=1;" vertex="1" parent="VLi1H5qzZdntmuQjMVy9-8">
          <mxGeometry x="30" width="150" height="30" as="geometry">
            <mxRectangle width="150" height="30" as="alternateBounds" />
          </mxGeometry>
        </mxCell>
        <mxCell id="VLi1H5qzZdntmuQjMVy9-11" style="shape=tableRow;horizontal=0;startSize=0;swimlaneHead=0;swimlaneBody=0;fillColor=none;collapsible=0;dropTarget=0;points=[[0,0.5],[1,0.5]];portConstraint=eastwest;top=0;left=0;right=0;bottom=0;" vertex="1" parent="VLi1H5qzZdntmuQjMVy9-1">
          <mxGeometry y="120" width="180" height="30" as="geometry" />
        </mxCell>
        <mxCell id="VLi1H5qzZdntmuQjMVy9-12" value="FK" style="shape=partialRectangle;connectable=0;fillColor=none;top=0;left=0;bottom=0;right=0;editable=1;overflow=hidden;whiteSpace=wrap;html=1;" vertex="1" parent="VLi1H5qzZdntmuQjMVy9-11">
          <mxGeometry width="30" height="30" as="geometry">
            <mxRectangle width="30" height="30" as="alternateBounds" />
          </mxGeometry>
        </mxCell>
        <mxCell id="VLi1H5qzZdntmuQjMVy9-13" value="IdTicket" style="shape=partialRectangle;connectable=0;fillColor=none;top=0;left=0;bottom=0;right=0;align=left;spacingLeft=6;overflow=hidden;whiteSpace=wrap;html=1;" vertex="1" parent="VLi1H5qzZdntmuQjMVy9-11">
          <mxGeometry x="30" width="150" height="30" as="geometry">
            <mxRectangle width="150" height="30" as="alternateBounds" />
          </mxGeometry>
        </mxCell>
        <mxCell id="tkkefu-DvqJ4D5VY78V--1" value="" style="edgeStyle=entityRelationEdgeStyle;fontSize=12;html=1;endArrow=ERzeroToMany;startArrow=ERmandOne;rounded=0;exitX=1;exitY=0.5;exitDx=0;exitDy=0;entryX=0;entryY=0.5;entryDx=0;entryDy=0;" edge="1" parent="1" source="BRkfBDlrN-Yj64_jAyUv-2" target="VLi1H5qzZdntmuQjMVy9-11">
          <mxGeometry width="100" height="100" relative="1" as="geometry">
            <mxPoint x="270" y="750" as="sourcePoint" />
            <mxPoint x="590" y="740" as="targetPoint" />
            <Array as="points">
              <mxPoint x="320" y="390" />
              <mxPoint x="310" y="410" />
              <mxPoint x="313" y="405" />
              <mxPoint x="310" y="400" />
            </Array>
          </mxGeometry>
        </mxCell>
        <mxCell id="OcB4yLOOqjEvBWQLQ5y--4" value="" style="edgeStyle=entityRelationEdgeStyle;fontSize=12;html=1;endArrow=ERzeroToMany;startArrow=ERmandOne;rounded=0;" edge="1" parent="1" target="OcB4yLOOqjEvBWQLQ5y--1">
          <mxGeometry width="100" height="100" relative="1" as="geometry">
            <mxPoint x="540" y="505" as="sourcePoint" />
            <mxPoint x="370" y="345" as="targetPoint" />
          </mxGeometry>
        </mxCell>
      </root>
    </mxGraphModel>
  </diagram>
</mxfile>
